<svg width="857" height="811" viewBox="0 0 857 811" fill="none" xmlns="http://www.w3.org/2000/svg">
<g filter="url(#filter0_d_315_4959)">
<rect width="841" height="795" transform="translate(8 8)" fill="#E8F3FF"/>
<g opacity="0.2">
<mask id="mask0_315_4959" style="mask-type:alpha" maskUnits="userSpaceOnUse" x="32" y="108" width="793" height="596">
<path opacity="0.48" fill-rule="evenodd" clip-rule="evenodd" d="M32 437.092C32 505.727 56.691 568.27 97.3218 615.538C143.934 669.781 211.527 703.885 286.871 704C319.8 704.049 351.285 697.565 380.206 685.728C395.159 679.606 411.896 680.309 426.379 687.562C443.368 696.06 462.391 700.824 482.479 700.824C490.777 700.824 498.903 700.005 506.764 698.451C529.201 694.03 549.619 683.568 566.387 668.75C576.925 659.434 590.422 654.751 604.215 654.767H604.45C650.029 654.767 692.367 640.311 727.517 615.538C758.942 593.419 784.604 563.063 801.702 527.421C816.608 496.362 825 461.276 825 424.141C825 296.778 726.248 193.515 604.45 193.515C592.033 193.515 579.868 194.612 568 196.658C536.575 143.462 480.302 108 416.107 108C389.004 108 363.309 114.32 340.31 125.65C318.437 136.39 298.989 151.651 283.081 170.249C229.063 171.149 179.115 189.602 138.234 220.398C73.8827 268.846 32 347.861 32 437.092Z" fill="url(#paint0_linear_315_4959)"/>
</mask>
<g mask="url(#mask0_315_4959)">
<rect x="32" y="108" width="793" height="596" fill="#003289"/>
</g>
</g>
<path opacity="0.05" d="M516.071 449.361C512.356 453.786 508.346 453.712 505.955 453.088L506.044 450.797C506.044 450.797 515.923 446.273 515.671 447.223C515.577 447.579 515.764 448.436 516.071 449.361Z" fill="#FF5630"/>
<path opacity="0.05" d="M543.144 454.37C536.836 458.022 533.137 453.741 532.277 452.528C532.806 451.137 533.601 448.88 533.438 448.237C533.201 447.282 543.065 451.806 543.065 451.806L543.144 454.37Z" fill="#FF5630"/>
<path opacity="0.05" d="M536.387 417.926C536.387 417.926 542.388 414.461 543.697 416.02C545.006 417.58 536.387 417.926 536.387 417.926Z" fill="#FF5630"/>
<path opacity="0.05" d="M540.011 419.832C540.011 419.832 539.023 420.327 541.201 420.961C543.379 421.594 540.011 419.832 540.011 419.832Z" fill="#FF5630"/>
<path opacity="0.05" d="M503.723 410.304C503.52 410.363 508.716 413.818 513.408 410.957C513.389 410.957 504.893 409.947 503.723 410.304Z" fill="#FF5630"/>
<path opacity="0.05" d="M513.152 416.911C513.152 416.911 511.73 419.713 508.816 420.128C505.901 420.544 513.152 416.911 513.152 416.911Z" fill="#FF5630"/>
<path opacity="0.05" d="M532.227 422.989C532.227 422.989 539.063 433.878 537.754 436.447C536.445 439.016 532.227 422.989 532.227 422.989Z" fill="#FF5630"/>
<path opacity="0.05" d="M518.738 466.289C518.738 466.898 518.738 467.467 518.679 467.937C518.501 470.14 513.093 469.308 513.093 469.308C508.153 469.996 506.375 467.62 505.788 465.348C505.603 464.61 505.512 463.852 505.516 463.091C505.513 462.638 505.542 462.184 505.605 461.735V461.285C506.669 460.963 507.824 461.199 508.677 461.913C510.875 463.7 513.789 462.329 513.789 462.329C513.789 462.329 515.928 462.507 516.753 463.22C517.217 463.621 517.983 462.656 518.565 461.735C518.6 462.329 518.654 463.403 518.689 464.551C518.728 465.14 518.738 465.734 518.738 466.289Z" fill="#FF5630"/>
<path opacity="0.05" d="M510.065 466.16C510.065 466.16 508.583 467.616 505.787 465.368C505.603 464.63 505.511 463.872 505.516 463.111C506.943 464.2 509.591 466.16 510.065 466.16Z" fill="#FF5630"/>
<path opacity="0.05" d="M518.738 466.289C518.494 466.478 518.184 466.557 517.88 466.508C517.576 466.459 517.306 466.287 517.133 466.032C517.709 465.592 518.239 465.095 518.713 464.547C518.728 465.141 518.738 465.735 518.738 466.289Z" fill="#FF5630"/>
<path opacity="0.05" d="M530.331 467.309C530.331 467.923 530.331 468.492 530.386 468.957C530.563 471.165 535.972 470.328 535.972 470.328C540.911 471.021 542.689 468.645 543.277 466.368C543.568 465.187 543.63 463.96 543.46 462.755V462.305C542.394 461.989 541.24 462.224 540.383 462.933C538.185 464.72 535.275 463.349 535.275 463.349C535.275 463.349 533.137 463.532 532.312 464.245C531.848 464.646 531.082 463.681 530.504 462.76C530.47 463.354 530.41 464.428 530.376 465.576C530.336 466.156 530.326 466.75 530.331 467.309Z" fill="#FF5630"/>
<path opacity="0.05" d="M539.006 467.17C539.006 467.17 540.488 468.625 543.278 466.378C543.465 465.642 543.558 464.885 543.555 464.126C542.123 465.21 539.475 467.17 539.006 467.17Z" fill="#FF5630"/>
<path opacity="0.05" d="M530.331 467.309C530.574 467.497 530.884 467.576 531.187 467.527C531.49 467.478 531.76 467.306 531.932 467.051C531.355 466.613 530.825 466.115 530.351 465.566C530.336 466.155 530.326 466.749 530.331 467.309Z" fill="#FF5630"/>
<g opacity="0.05">
<path d="M560.031 283.934C560.135 283.707 560.233 283.479 560.327 283.256C560.421 283.033 560.456 282.91 560.51 282.731C560.328 283.123 560.168 283.525 560.031 283.934Z" fill="#FF5630"/>
</g>
<path fill-rule="evenodd" clip-rule="evenodd" d="M292.357 570.663C291.16 569.219 290.611 567.344 290.84 565.48L312.642 386.714L314.45 371.865C314.869 368.448 317.752 365.873 321.187 365.846L385.047 365.42C386.884 365.409 388.639 364.657 389.916 363.334C391.193 362.01 391.884 360.227 391.833 358.387L391.809 357.709C391.746 355.853 392.438 354.051 393.725 352.716C395.013 351.38 396.787 350.626 398.64 350.626H465.745C469.512 350.626 472.568 353.682 472.576 357.456C472.575 357.764 472.556 358.072 472.516 358.377C472.259 360.304 472.831 362.249 474.09 363.728C475.349 365.207 477.176 366.079 479.115 366.128L543.563 367.777C545.546 367.825 547.41 368.736 548.669 370.272C549.928 371.808 550.459 373.816 550.122 375.775L517.903 564.357L517.296 567.921C517.146 568.831 516.809 569.701 516.308 570.475L292.357 570.663Z" fill="#003289"/>
<rect width="37.7617" height="128.263" transform="matrix(0.822181 0.569226 -0.567611 0.823297 486.844 312.752)" fill="white"/>
<rect width="26.6592" height="26.6787" transform="matrix(0.820547 0.571579 -0.569963 0.82167 489.082 317.755)" fill="#FFAB00"/>
<rect opacity="0.5" width="26.6951" height="26.715" transform="matrix(0.822181 0.569226 -0.567611 0.823297 471.943 344.172)" fill="#FFAB00"/>
<rect opacity="0.3" width="26.6951" height="26.715" transform="matrix(0.822181 0.569226 -0.567611 0.823297 453.633 370.727)" fill="#FFAB00"/>
<rect width="37.7423" height="127.843" transform="matrix(0.959695 0.281042 -0.279957 0.960012 442.979 306.139)" fill="white"/>
<rect width="26.6814" height="26.7287" transform="matrix(0.959695 0.281042 -0.279957 0.960012 447.734 309.682)" fill="#FF5630"/>
<rect opacity="0.5" width="26.6814" height="26.7287" transform="matrix(0.959695 0.281042 -0.279957 0.960012 438.699 340.659)" fill="#FF5630"/>
<rect opacity="0.3" width="26.6814" height="26.7287" transform="matrix(0.959695 0.281042 -0.279957 0.960012 429.666 371.633)" fill="#FF5630"/>
<rect width="37.7365" height="127.863" transform="matrix(0.996765 0.0803664 -0.0800318 0.996792 417.322 308.074)" fill="white"/>
<rect width="26.6774" height="26.7327" transform="matrix(0.996765 0.0803664 -0.0800318 0.996792 422.676 310.58)" fill="#00B8D9"/>
<rect opacity="0.5" width="26.6774" height="26.7327" transform="matrix(0.996765 0.0803664 -0.0800318 0.996792 420.09 342.744)" fill="#00B8D9"/>
<rect opacity="0.3" width="26.6774" height="26.7327" transform="matrix(0.996765 0.0803664 -0.0800318 0.996792 417.508 374.917)" fill="#00B8D9"/>
<rect width="37.7362" height="127.864" transform="matrix(0.998958 -0.0456329 0.045442 0.998967 400.398 313.198)" fill="white"/>
<rect width="26.6771" height="26.733" transform="matrix(0.998958 -0.0456329 0.045442 0.998967 406.02 315.004)" fill="#003289"/>
<rect opacity="0.5" width="26.7105" height="26.7663" transform="matrix(0.998747 -0.0500423 0.0498331 0.998758 408.531 346.222)" fill="#003289"/>
<rect opacity="0.3" width="26.6771" height="26.733" transform="matrix(0.998958 -0.0456329 0.045442 0.998967 408.951 379.486)" fill="#003289"/>
<path d="M416.406 481.702L382.878 494.7L333.875 513.682C332.023 510.217 329.297 505.534 325.923 499.946C314.316 480.672 295.112 450.692 278.012 424.345C258.749 394.647 242.168 369.587 242.168 369.587L254.17 366.123L352.215 337.598L416.406 481.702Z" fill="#F4F6F8"/>
<path opacity="0.1" d="M416.406 481.702L382.878 494.7C364.149 498.61 345.036 500.37 325.909 499.946C314.302 480.672 295.098 450.692 277.998 424.345L254.176 366.103L352.215 337.598L416.406 481.702Z" fill="black"/>
<path d="M441.349 473.614C441.349 473.614 389.264 504.49 311.501 497.506L249.508 346.047L279.218 340.929L381.925 323.254L440.208 470.669L441.349 473.614Z" fill="#003289"/>
<path opacity="0.1" d="M440.19 470.689C427.925 471.293 413.735 471.233 399.46 469.526C384.01 467.704 368.471 463.952 355.15 457.072C344.012 451.326 334.489 445.074 326.186 437.576C304.587 418.109 291.221 390.262 279.219 340.949L381.926 323.273L440.19 470.689Z" fill="#FF5630"/>
<path d="M478.398 462.221C478.398 462.221 440.005 469.754 400.926 465.117C385.476 463.295 369.937 459.543 356.616 452.663C345.478 446.917 335.96 440.665 327.652 433.167C300.921 409.067 286.804 372.132 272.248 297.546C272.248 297.546 336.073 312.984 399.187 279.168C399.168 279.193 420.441 412.229 478.398 462.221Z" fill="white"/>
<g opacity="0.3">
<path d="M305.262 324.926C305.262 324.926 357.164 321.986 371.655 310.775L373.853 317.853C373.853 317.853 339.56 333.014 305.262 333.197V324.926Z" fill="#003289"/>
<path d="M305.262 359.871C305.262 359.871 355.514 357.114 393.482 338.736L394.766 341.676C394.766 341.676 364.637 359.302 305.262 363.915V359.871Z" fill="#003289"/>
<path d="M309.308 373.488C309.308 373.488 359.56 370.731 397.523 352.353L398.808 355.293C398.808 355.293 368.678 372.913 309.308 377.532V373.488Z" fill="#003289"/>
<path d="M313.348 387.124C313.348 387.124 363.6 384.367 401.568 365.989L402.847 368.929C402.847 368.929 372.718 386.555 313.348 391.168V387.124Z" fill="#003289"/>
<path d="M317.393 400.76C317.393 400.76 367.645 398.003 405.608 379.625L406.892 382.565C406.892 382.565 376.763 400.191 317.393 404.804V400.76Z" fill="#003289"/>
<path d="M321.432 414.401C321.432 414.401 371.685 411.644 409.653 393.266L410.932 396.206C410.932 396.206 380.802 413.827 321.432 418.445V414.401Z" fill="#003289"/>
</g>
<path d="M674.774 583.715C674.774 583.715 653.89 582.453 656.35 597.119C656.35 597.119 655.856 599.707 658.207 600.885C658.207 600.885 658.242 599.796 660.346 600.168C661.096 600.294 661.859 600.331 662.618 600.277C663.642 600.208 664.616 599.804 665.389 599.128C665.389 599.128 671.262 596.698 673.544 587.086C673.544 587.086 675.233 584.987 675.164 584.448L671.642 585.933C671.642 585.933 672.847 588.482 671.899 590.595C671.899 590.595 671.785 586.027 671.109 586.14C670.97 586.14 669.276 587.021 669.276 587.021C669.276 587.021 671.346 591.476 669.77 594.684C669.77 594.684 670.363 589.214 668.614 587.343L666.145 588.793C666.145 588.793 668.565 593.377 666.925 597.119C666.925 597.119 667.345 591.382 665.621 589.145L663.374 590.902C663.374 590.902 665.651 595.421 664.263 598.524C664.263 598.524 664.08 591.842 662.885 591.338C662.885 591.338 660.909 593.075 660.623 593.812C660.623 593.812 662.178 597.089 661.21 598.821C661.21 598.821 660.618 594.367 660.134 594.367C660.134 594.367 658.158 597.337 657.97 599.316C657.97 599.316 658.054 596.307 659.659 594.065C658.529 594.281 657.485 594.823 656.656 595.624C656.656 595.624 656.963 593.535 660.143 593.357C660.143 593.357 661.764 591.12 662.193 590.981C662.193 590.981 659.032 590.719 657.116 591.57C657.116 591.57 658.805 589.59 662.776 590.496L664.994 588.685C664.994 588.685 660.83 588.11 659.067 588.744C659.067 588.744 661.097 587.002 665.591 588.249L668.007 586.804C668.007 586.804 664.46 586.036 662.346 586.309C662.346 586.309 664.574 585.101 668.718 586.408L670.442 585.631C670.442 585.631 667.844 585.136 667.083 585.037C666.323 584.938 666.278 584.75 666.278 584.75C667.925 584.471 669.617 584.66 671.163 585.294C671.163 585.294 674.833 583.948 674.774 583.715Z" fill="#003289"/>
<path d="M684.5 535.303C684.5 535.303 672.729 534.59 674.127 542.861C673.979 543.72 674.4 544.577 675.169 544.984C675.169 544.984 675.194 544.37 676.38 544.578C676.802 544.648 677.231 544.668 677.659 544.638C678.235 544.6 678.784 544.374 679.22 543.994C679.22 543.994 682.529 542.623 683.818 537.203C683.818 537.203 684.771 536.02 684.732 535.718L682.756 536.565C682.756 536.565 683.433 538.005 682.899 539.198C682.899 539.198 682.835 536.619 682.455 536.679C682.376 536.679 681.422 537.173 681.422 537.173C681.422 537.173 682.588 539.648 681.709 541.495C681.709 541.495 682.045 538.411 681.057 537.352L679.659 538.173C679.659 538.173 681.022 540.757 680.099 542.866C680.099 542.866 680.336 539.629 679.363 538.371L678.098 539.361C678.098 539.361 679.378 541.91 678.592 543.658C678.592 543.658 678.489 539.891 677.817 539.609C677.337 540.016 676.908 540.48 676.538 540.99C676.538 540.99 677.417 542.841 676.873 543.816C676.873 543.816 676.538 541.306 676.266 541.297C676.266 541.297 675.16 542.955 675.046 544.093C675.1 543.037 675.428 542.013 675.999 541.123C675.36 541.244 674.771 541.55 674.305 542.004C674.305 542.004 674.478 540.826 676.281 540.727C676.281 540.727 677.194 539.465 677.437 539.386C677.437 539.386 675.653 539.237 674.572 539.718C674.572 539.718 675.525 538.609 677.763 539.114L679.017 538.089C679.017 538.089 676.666 537.767 675.673 538.124C675.673 538.124 676.819 537.134 679.353 537.857L680.716 537.04C679.667 536.81 678.593 536.718 677.52 536.768C677.52 536.768 678.78 536.085 681.111 536.822L682.099 536.386C682.099 536.386 680.617 536.094 680.202 536.05C679.788 536.005 679.748 535.887 679.748 535.887C680.677 535.732 681.631 535.838 682.504 536.193C682.504 536.193 684.539 535.431 684.5 535.303Z" fill="#003289"/>
<path d="M615.014 542.479C615.014 542.479 600.798 541.618 602.478 551.601C602.299 552.639 602.807 553.675 603.737 554.165C603.737 554.165 603.737 553.423 605.219 553.67C605.73 553.757 606.249 553.782 606.765 553.745C607.462 553.698 608.125 553.423 608.652 552.963C608.652 552.963 612.648 551.309 614.204 544.766C614.204 544.766 615.354 543.341 615.305 542.969L612.88 543.999C612.88 543.999 613.7 545.731 613.053 547.172C613.053 547.172 612.974 544.063 612.514 544.132C612.42 544.132 611.27 544.736 611.27 544.736C611.27 544.736 612.677 547.756 611.615 549.953C611.615 549.953 612.02 546.231 610.83 544.954L609.141 545.944C609.141 545.944 610.786 549.067 609.669 551.611C609.669 551.611 609.956 547.706 608.785 546.167L607.254 547.365C607.254 547.365 608.805 550.438 607.857 552.552C607.857 552.552 607.738 548.003 606.923 547.662C606.923 547.662 605.585 548.845 605.382 549.33C605.382 549.33 606.439 551.562 605.782 552.74C605.782 552.74 605.377 549.711 605.046 549.696C605.046 549.696 603.717 551.705 603.564 553.076C603.631 551.805 604.028 550.573 604.715 549.503C603.946 549.65 603.237 550.02 602.675 550.567C602.675 550.567 602.883 549.146 605.046 549.023C605.046 549.023 606.148 547.498 606.444 547.409C606.444 547.409 604.29 547.226 602.986 547.805C602.986 547.805 604.132 546.469 606.834 547.078L608.346 545.84C608.346 545.84 605.515 545.454 604.31 545.88C604.31 545.88 605.693 544.697 608.756 545.563L610.4 544.573C610.4 544.573 607.985 544.053 606.543 544.241C606.543 544.241 608.064 543.42 610.879 544.311L612.055 543.781C612.055 543.781 610.287 543.435 609.768 543.38C609.249 543.326 609.225 543.182 609.225 543.182C610.345 542.992 611.496 543.119 612.549 543.548C612.549 543.548 615.058 542.633 615.014 542.479Z" fill="#003289"/>
<rect width="84.4588" height="150.886" rx="4.73723" transform="matrix(0.308596 -0.951193 0.950811 0.30977 491.498 314.967)" fill="white"/>
<g opacity="0.24">
<path d="M549.085 279.361C549.085 287.934 542.15 294.883 533.595 294.883C525.04 294.883 518.105 287.934 518.105 279.361C518.105 270.788 525.04 263.839 533.595 263.839C542.15 263.839 549.085 270.788 549.085 279.361Z" fill="#003289"/>
<path d="M570.656 276.567L571.967 272.523L636.146 293.432L634.834 297.476L570.656 276.567Z" fill="#003289"/>
<path d="M567.31 286.875L568.622 282.832L601.315 293.483L600.003 297.527L567.31 286.875Z" fill="#003289"/>
<path d="M563.96 297.191L565.271 293.148L618.148 310.375L616.837 314.418L563.96 297.191Z" fill="#003289"/>
<path d="M560.616 307.503L561.928 303.459L626.107 324.368L624.795 328.412L560.616 307.503Z" fill="#003289"/>
</g>
<rect opacity="0.5" width="8.21973" height="18.6791" transform="matrix(0.308596 -0.951193 0.950811 0.30977 600.98 341.29)" fill="#003289"/>
<rect width="83.2239" height="129.445" rx="4" transform="matrix(0.539954 -0.841694 0.840661 0.541561 478.336 461.662)" fill="white"/>
<path d="M545.965 484.093L573.655 440.419L577.937 443.145L550.246 486.819L545.965 484.093Z" fill="#F4F6F8"/>
<path d="M555.111 489.912L582.801 446.238L587.083 448.964L559.393 492.638L555.111 489.912Z" fill="#F4F6F8"/>
<path d="M494.461 456.776L507.069 436.89L511.738 439.863L499.13 459.749L494.461 456.776Z" fill="#C4CDD5"/>
<path d="M509.385 460.805L537.075 417.131L541.356 419.857L513.666 463.531L509.385 460.805Z" fill="#C4CDD5"/>
<path d="M518.531 466.623L546.221 422.949L550.503 425.675L522.812 469.349L518.531 466.623Z" fill="#C4CDD5"/>
<path d="M527.675 472.45L555.366 428.776L559.647 431.502L531.957 475.176L527.675 472.45Z" fill="#C4CDD5"/>
<path d="M537.138 480.894L565.021 437.429L569.282 440.174L541.399 483.639L537.138 480.894Z" fill="#C4CDD5"/>
<path d="M593.508 465.102L600.679 453.793L611.964 460.978L604.794 472.288L593.508 465.102Z" fill="#C4CDD5"/>
<path d="M476.868 387.392L401.258 388.209C398.428 388.238 396.148 390.545 396.146 393.381V399.642C396.144 402.45 393.909 404.745 391.108 404.815L336.548 406.126C334.169 406.186 332.057 404.608 331.436 402.305L328.873 392.866C328.258 390.589 326.184 389.017 323.83 389.045L250.951 389.832C249.44 389.847 248.011 390.525 247.042 391.687C246.072 392.848 245.66 394.378 245.913 395.871L275.232 568.792C275.653 571.273 277.793 573.093 280.305 573.103L510.544 574.093C512.087 574.098 513.551 573.412 514.537 572.222C515.522 571.033 515.926 569.464 515.637 567.945L481.99 391.594C481.522 389.136 479.365 387.367 476.868 387.392Z" fill="url(#paint1_linear_315_4959)"/>
<g opacity="0.2">
<path d="M675.17 602.162C675.17 603.545 668.553 604.667 660.392 604.667C652.23 604.667 645.613 603.545 645.613 602.162C645.613 600.779 652.23 599.658 660.392 599.658C668.553 599.658 675.17 600.779 675.17 602.162Z" fill="#003289"/>
<path d="M684.733 545.701C684.733 546.48 681.003 547.112 676.401 547.112C671.799 547.112 668.068 546.48 668.068 545.701C668.068 544.922 671.799 544.291 676.401 544.291C681.003 544.291 684.733 544.922 684.733 545.701Z" fill="#003289"/>
<path d="M615.288 555.037C615.288 555.977 610.783 556.739 605.226 556.739C599.67 556.739 595.165 555.977 595.165 555.037C595.165 554.096 599.67 553.334 605.226 553.334C610.783 553.334 615.288 554.096 615.288 555.037Z" fill="#003289"/>
<path d="M237.586 536.233C237.586 536.842 234.002 537.336 229.58 537.336C225.158 537.336 221.573 536.842 221.573 536.233C221.573 535.623 225.158 535.129 229.58 535.129C234.002 535.129 237.586 535.623 237.586 536.233Z" fill="#003289"/>
<path d="M206.918 539.346C206.918 539.956 203.333 540.45 198.911 540.45C194.489 540.45 190.905 539.956 190.905 539.346C190.905 538.737 194.489 538.242 198.911 538.242C203.333 538.242 206.918 538.737 206.918 539.346Z" fill="#003289"/>
<path d="M216.876 548.221C216.876 548.653 214.329 549.003 211.186 549.003C208.044 549.003 205.496 548.653 205.496 548.221C205.496 547.789 208.044 547.439 211.186 547.439C214.329 547.439 216.876 547.789 216.876 548.221Z" fill="#003289"/>
<path d="M185.046 547.439C185.046 547.871 182.499 548.221 179.356 548.221C176.214 548.221 173.666 547.871 173.666 547.439C173.666 547.007 176.214 546.657 179.356 546.657C182.499 546.657 185.046 547.007 185.046 547.439Z" fill="#003289"/>
</g>
<path d="M176.221 545.657C175.863 545.364 175.603 544.968 175.475 544.523C175.349 544.063 175.569 543.577 175.998 543.37C176.492 543.187 176.986 543.518 177.381 543.865C177.776 544.211 178.226 544.578 178.72 544.494C178.187 544.009 177.946 543.28 178.088 542.573C178.108 542.429 178.168 542.294 178.26 542.182C178.527 541.895 179.011 542.019 179.332 542.246C180.32 542.959 180.631 544.34 180.636 545.587C180.686 545.13 180.686 544.669 180.636 544.211C180.61 543.743 180.817 543.293 181.189 543.009C181.43 542.877 181.701 542.812 181.975 542.821C182.434 542.755 182.899 542.888 183.254 543.187C183.6 543.659 183.58 544.307 183.205 544.756C182.826 545.181 182.379 545.539 181.881 545.815C181.503 546.043 181.181 546.352 180.938 546.721C180.908 546.77 180.884 546.824 180.868 546.879H177.994C177.35 546.554 176.754 546.143 176.221 545.657Z" fill="#003289"/>
<path d="M226.329 534.857C225.97 534.566 225.71 534.172 225.583 533.728C225.456 533.269 225.674 532.784 226.102 532.575C226.596 532.392 227.09 532.723 227.485 533.07C227.88 533.416 228.324 533.792 228.833 533.718C228.3 533.236 228.058 532.509 228.196 531.803C228.218 531.658 228.279 531.523 228.374 531.412C228.641 531.125 229.125 531.248 229.446 531.471C230.458 532.189 230.745 533.57 230.75 534.817C230.799 534.358 230.799 533.895 230.75 533.436C230.705 532.973 230.889 532.518 231.244 532.218C231.485 532.09 231.756 532.027 232.029 532.035C232.487 531.971 232.951 532.102 233.308 532.397C233.655 532.871 233.633 533.522 233.254 533.971C232.878 534.397 232.432 534.755 231.935 535.03C231.557 535.255 231.235 535.563 230.992 535.931C230.963 535.982 230.939 536.037 230.922 536.094H228.112C227.464 535.766 226.864 535.349 226.329 534.857Z" fill="#003289"/>
<path d="M209.63 545.657C209.273 545.362 209.011 544.968 208.879 544.523C208.753 544.062 208.974 543.577 209.403 543.37C209.897 543.187 210.391 543.518 210.786 543.865C211.181 544.211 211.621 544.587 212.134 544.518C211.602 544.033 211.36 543.305 211.497 542.598C211.519 542.453 211.581 542.318 211.675 542.207C211.942 541.92 212.426 542.043 212.747 542.271C213.759 542.984 214.041 544.365 214.051 545.612C214.1 545.155 214.1 544.693 214.051 544.236C214.012 543.769 214.206 543.313 214.569 543.018C214.81 542.886 215.081 542.821 215.355 542.83C215.814 542.765 216.279 542.898 216.634 543.197C216.98 543.669 216.958 544.318 216.58 544.766C216.203 545.191 215.757 545.549 215.261 545.825C214.883 546.053 214.561 546.362 214.318 546.731C214.288 546.78 214.264 546.833 214.248 546.889H211.384C210.747 546.558 210.157 546.144 209.63 545.657Z" fill="#003289"/>
<g opacity="0.08">
<path d="M182.231 252.038C182.231 257.951 177.447 262.744 171.547 262.744C165.647 262.744 160.863 257.951 160.863 252.038C160.863 246.125 165.647 241.332 171.547 241.332C177.447 241.332 182.231 246.125 182.231 252.038Z" fill="#003289"/>
<path d="M695.959 337.593C695.959 343.506 691.176 348.299 685.275 348.299C679.375 348.299 674.592 343.506 674.592 337.593C674.592 331.68 679.375 326.887 685.275 326.887C691.176 326.887 695.959 331.68 695.959 337.593Z" fill="#003289"/>
<path d="M503.911 218.039C503.911 223.952 499.128 228.745 493.227 228.745C487.327 228.745 482.544 223.952 482.544 218.039C482.544 212.126 487.327 207.333 493.227 207.333C499.128 207.333 503.911 212.126 503.911 218.039Z" fill="#003289"/>
<path d="M210.819 311.102C210.819 321.012 202.803 329.045 192.914 329.045C183.026 329.045 175.009 321.012 175.009 311.102C175.009 301.193 183.026 293.16 192.914 293.16C202.803 293.16 210.819 301.193 210.819 311.102Z" fill="#003289"/>
</g>
<path fill-rule="evenodd" clip-rule="evenodd" d="M372.378 455.519C359.202 455.519 348.521 466.222 348.521 479.425C348.521 492.629 359.202 503.332 372.378 503.332C385.554 503.332 396.235 492.629 396.235 479.425C396.235 466.222 385.554 455.519 372.378 455.519V455.519Z" fill="#003289"/>
<path opacity="0.72" fill-rule="evenodd" clip-rule="evenodd" d="M372.378 458.299C384.021 458.299 393.46 467.757 393.46 479.425C393.46 491.092 384.021 500.551 372.378 500.551C360.735 500.551 351.297 491.092 351.297 479.425C351.307 467.761 360.74 458.309 372.378 458.299Z" fill="#1877F2"/>
<path fill-rule="evenodd" clip-rule="evenodd" d="M362.513 481.172L361.36 480.043C361.11 479.815 360.969 479.496 360.969 479.162C360.969 478.828 361.11 478.509 361.36 478.281L371.481 468.373C371.715 468.13 372.041 467.991 372.383 467.991C372.724 467.991 373.05 468.13 373.284 468.373L383.406 478.272C383.65 478.503 383.788 478.821 383.788 479.153C383.788 479.486 383.65 479.804 383.406 480.035L382.252 481.163C382.016 481.402 381.69 481.537 381.351 481.537C381.011 481.537 380.685 481.402 380.449 481.163L374.465 474.993V489.633C374.467 489.958 374.337 490.269 374.103 490.499C373.87 490.729 373.552 490.859 373.221 490.859H371.553C370.861 490.859 370.301 490.31 370.301 489.633V475.011L364.316 481.181C364.079 481.419 363.753 481.552 363.413 481.55C363.073 481.549 362.748 481.412 362.513 481.172Z" fill="#003289"/>
<path d="M198.737 539.103C198.737 539.103 209.963 502.218 196.978 487.443C187.263 476.391 176.233 477.712 171.294 479.078C168.709 479.77 166.557 481.563 165.406 483.984C163.678 487.716 163.989 493.774 176.179 500.847C196.583 512.687 197.852 528.926 197.852 528.926L198.737 539.103Z" fill="#003289"/>
<path d="M199.193 539.395C199.193 539.395 186.039 512.587 182.429 513.161C180.715 513.444 179.925 515.141 179.564 516.834C179.121 519.03 179.371 521.311 180.28 523.358C182.147 527.664 187.161 535.806 199.193 539.395Z" fill="#003289"/>
<path d="M198.801 539.395C198.801 539.395 211.949 512.587 215.56 513.161C217.279 513.444 218.069 515.141 218.425 516.834C218.868 519.03 218.618 521.311 217.709 523.358C215.842 527.664 210.823 535.806 198.801 539.395Z" fill="#003289"/>
<path fill-rule="evenodd" clip-rule="evenodd" d="M172.665 484.187C172.734 483.969 172.965 483.847 173.183 483.916L173.06 484.31C173.183 483.916 173.183 483.916 173.183 483.916L173.186 483.916L173.191 483.918L173.211 483.925L173.286 483.949C173.351 483.971 173.446 484.004 173.57 484.049C173.816 484.138 174.174 484.274 174.626 484.462C175.529 484.838 176.807 485.424 178.316 486.267C181.332 487.952 185.276 490.665 188.986 494.78C196.421 503.025 202.876 516.851 199.151 539.171C199.114 539.397 198.901 539.549 198.676 539.511C198.451 539.474 198.299 539.26 198.336 539.035C202.021 516.957 195.634 503.387 188.374 495.335C184.737 491.301 180.87 488.641 177.914 486.99C176.436 486.164 175.186 485.592 174.309 485.226C173.87 485.043 173.524 484.912 173.289 484.827C173.172 484.785 173.082 484.754 173.023 484.734L172.956 484.712L172.94 484.707L172.937 484.706C172.719 484.637 172.597 484.405 172.665 484.187Z" fill="#003289"/>
<path fill-rule="evenodd" clip-rule="evenodd" d="M192.734 487.796C192.862 487.986 192.812 488.243 192.623 488.371L192.622 488.372L192.614 488.377L192.581 488.4C192.552 488.421 192.507 488.454 192.45 488.498C192.335 488.586 192.171 488.718 191.977 488.89C191.589 489.237 191.087 489.743 190.63 490.386C189.718 491.67 189.005 493.462 189.679 495.61C189.748 495.828 189.627 496.061 189.409 496.129C189.191 496.198 188.96 496.077 188.891 495.859C188.113 493.379 188.954 491.318 189.958 489.906C190.459 489.2 191.007 488.648 191.428 488.272C191.639 488.084 191.819 487.939 191.948 487.84C192.013 487.791 192.064 487.753 192.101 487.727L192.143 487.697L192.156 487.688L192.159 487.686L192.161 487.685C192.161 487.685 192.161 487.685 192.384 488.016L192.161 487.685C192.35 487.557 192.607 487.607 192.734 487.796Z" fill="#003289"/>
<path fill-rule="evenodd" clip-rule="evenodd" d="M176.673 491.06L176.677 491.056L176.696 491.037C176.715 491.019 176.743 490.993 176.781 490.959C176.857 490.89 176.97 490.792 177.118 490.679C177.414 490.451 177.842 490.163 178.367 489.922C179.415 489.441 180.829 489.155 182.384 489.874C182.591 489.969 182.837 489.879 182.932 489.671C183.028 489.464 182.937 489.218 182.73 489.122C180.892 488.272 179.216 488.622 178.023 489.169C177.428 489.442 176.947 489.767 176.615 490.022C176.448 490.15 176.318 490.262 176.228 490.343C176.183 490.384 176.149 490.416 176.124 490.44L176.096 490.468L176.088 490.476L176.085 490.478L176.084 490.48C176.084 490.48 176.084 490.48 176.378 490.77L176.084 490.48C175.924 490.643 175.926 490.905 176.089 491.065C176.251 491.225 176.513 491.223 176.673 491.06Z" fill="#003289"/>
<path fill-rule="evenodd" clip-rule="evenodd" d="M189.649 505.424L189.65 505.423L189.659 505.419L189.696 505.401C189.73 505.385 189.78 505.361 189.845 505.332C189.975 505.273 190.164 505.191 190.395 505.103C190.858 504.925 191.482 504.723 192.136 504.613C192.795 504.503 193.452 504.494 194 504.67C194.529 504.84 194.973 505.185 195.24 505.84C195.326 506.051 195.567 506.153 195.778 506.066C195.989 505.98 196.09 505.738 196.004 505.527C195.639 504.629 194.996 504.121 194.252 503.882C193.527 503.649 192.723 503.676 192 503.797C191.273 503.918 190.593 504.141 190.1 504.33C189.852 504.425 189.648 504.513 189.506 504.577C189.434 504.609 189.378 504.636 189.339 504.654L189.294 504.676L189.282 504.682L189.278 504.684L189.277 504.685C189.277 504.685 189.277 504.685 189.463 505.055L189.277 504.685C189.073 504.788 188.991 505.037 189.094 505.241C189.197 505.445 189.445 505.527 189.649 505.424Z" fill="#003289"/>
<path fill-rule="evenodd" clip-rule="evenodd" d="M182.294 517.92C182.482 517.79 182.739 517.837 182.868 518.025L182.528 518.26L182.188 518.495C182.059 518.307 182.106 518.049 182.294 517.92ZM182.528 518.26C182.188 518.495 182.188 518.495 182.188 518.495L182.345 518.721C182.446 518.869 182.596 519.085 182.788 519.36C183.171 519.911 183.721 520.699 184.389 521.647C185.726 523.542 187.536 526.079 189.43 528.645C191.323 531.209 193.304 533.806 194.981 535.819C195.818 536.825 196.585 537.692 197.231 538.338C197.553 538.66 197.851 538.933 198.116 539.142C198.373 539.345 198.63 539.512 198.867 539.59C199.083 539.662 199.317 539.544 199.388 539.327C199.46 539.11 199.342 538.876 199.125 538.804C199.029 538.772 198.865 538.679 198.627 538.492C198.397 538.31 198.124 538.062 197.814 537.752C197.195 537.132 196.446 536.287 195.615 535.289C193.954 533.294 191.984 530.712 190.094 528.152C188.205 525.593 186.398 523.061 185.064 521.169C184.397 520.223 183.848 519.437 183.465 518.887C183.274 518.612 183.125 518.397 183.023 518.25L182.868 518.025C182.868 518.025 182.868 518.025 182.528 518.26Z" fill="#003289"/>
<path fill-rule="evenodd" clip-rule="evenodd" d="M180.846 521.393C180.846 521.165 181.031 520.979 181.259 520.979H184.479C184.707 520.979 184.892 521.165 184.892 521.393C184.892 521.622 184.707 521.807 184.479 521.807H181.259C181.031 521.807 180.846 521.622 180.846 521.393Z" fill="#003289"/>
<path fill-rule="evenodd" clip-rule="evenodd" d="M184.704 528.711C184.713 528.483 184.906 528.305 185.134 528.315L190.187 528.533C190.415 528.543 190.592 528.736 190.582 528.964C190.572 529.193 190.379 529.37 190.151 529.36L185.098 529.142C184.871 529.132 184.694 528.939 184.704 528.711Z" fill="#003289"/>
<path fill-rule="evenodd" clip-rule="evenodd" d="M188.277 522.453C188.5 522.5 188.643 522.719 188.597 522.943L188.049 525.581C188.002 525.805 187.783 525.948 187.56 525.902C187.337 525.855 187.194 525.636 187.24 525.412L187.788 522.774C187.835 522.55 188.054 522.407 188.277 522.453Z" fill="#003289"/>
<path fill-rule="evenodd" clip-rule="evenodd" d="M193.579 530.468C193.807 530.478 193.984 530.671 193.974 530.899L193.876 533.295C193.866 533.523 193.674 533.7 193.446 533.691C193.218 533.682 193.041 533.489 193.05 533.26L193.149 530.865C193.158 530.636 193.351 530.459 193.579 530.468Z" fill="#003289"/>
<path fill-rule="evenodd" clip-rule="evenodd" d="M215.129 518.025C215.258 517.837 215.516 517.79 215.703 517.92C215.891 518.05 215.938 518.308 215.808 518.496L215.468 518.26L215.129 518.025ZM215.129 518.025C215.129 518.025 215.129 518.025 215.468 518.26C215.808 518.496 215.808 518.496 215.808 518.496L215.652 518.722C215.55 518.869 215.4 519.085 215.208 519.361C214.824 519.911 214.273 520.699 213.603 521.647C212.264 523.542 210.451 526.08 208.555 528.645C206.66 531.209 204.678 533.806 203.002 535.819C202.164 536.825 201.398 537.692 200.755 538.337C200.433 538.66 200.136 538.933 199.873 539.142C199.617 539.344 199.362 539.512 199.126 539.59C198.91 539.662 198.676 539.545 198.604 539.328C198.532 539.111 198.649 538.877 198.866 538.805C198.96 538.773 199.123 538.68 199.36 538.492C199.589 538.311 199.861 538.062 200.17 537.752C200.789 537.132 201.537 536.287 202.367 535.289C204.028 533.294 205.999 530.712 207.891 528.152C209.783 525.593 211.592 523.061 212.929 521.169C213.597 520.222 214.147 519.436 214.53 518.887C214.722 518.612 214.871 518.397 214.973 518.25L215.129 518.025Z" fill="#003289"/>
<path fill-rule="evenodd" clip-rule="evenodd" d="M213.103 521.393C213.103 521.165 213.288 520.979 213.516 520.979H216.737C216.965 520.979 217.15 521.165 217.15 521.393C217.15 521.622 216.965 521.807 216.737 521.807H213.516C213.288 521.807 213.103 521.622 213.103 521.393Z" fill="#003289"/>
<path fill-rule="evenodd" clip-rule="evenodd" d="M213.291 528.711C213.301 528.939 213.124 529.132 212.897 529.142L207.844 529.36C207.616 529.37 207.423 529.193 207.413 528.964C207.403 528.736 207.58 528.543 207.808 528.533L212.861 528.315C213.089 528.305 213.282 528.483 213.291 528.711Z" fill="#003289"/>
<path fill-rule="evenodd" clip-rule="evenodd" d="M209.718 522.453C209.941 522.407 210.16 522.55 210.207 522.774L210.755 525.412C210.801 525.636 210.658 525.855 210.435 525.902C210.211 525.948 209.993 525.805 209.946 525.581L209.398 522.943C209.351 522.719 209.495 522.5 209.718 522.453Z" fill="#003289"/>
<path fill-rule="evenodd" clip-rule="evenodd" d="M204.417 530.468C204.645 530.459 204.837 530.636 204.846 530.865L204.945 533.26C204.955 533.489 204.777 533.682 204.55 533.691C204.322 533.7 204.129 533.523 204.12 533.295L204.021 530.899C204.012 530.671 204.189 530.478 204.417 530.468Z" fill="#003289"/>
</g>
<defs>
<filter id="filter0_d_315_4959" x="0.4" y="0.4" width="856.2" height="810.2" filterUnits="userSpaceOnUse" color-interpolation-filters="sRGB">
<feFlood flood-opacity="0" result="BackgroundImageFix"/>
<feColorMatrix in="SourceAlpha" type="matrix" values="0 0 0 0 0 0 0 0 0 0 0 0 0 0 0 0 0 0 127 0" result="hardAlpha"/>
<feMorphology radius="1" operator="dilate" in="SourceAlpha" result="effect1_dropShadow_315_4959"/>
<feOffset/>
<feGaussianBlur stdDeviation="3.3"/>
<feComposite in2="hardAlpha" operator="out"/>
<feColorMatrix type="matrix" values="0 0 0 0 0 0 0 0 0 0 0 0 0 0 0 0 0 0 0.31 0"/>
<feBlend mode="normal" in2="BackgroundImageFix" result="effect1_dropShadow_315_4959"/>
<feBlend mode="normal" in="SourceGraphic" in2="effect1_dropShadow_315_4959" result="shape"/>
</filter>
<linearGradient id="paint0_linear_315_4959" x1="428.5" y1="704" x2="738.297" y2="150.303" gradientUnits="userSpaceOnUse">
<stop/>
<stop offset="1" stop-opacity="0.01"/>
</linearGradient>
<linearGradient id="paint1_linear_315_4959" x1="327.11" y1="335.207" x2="246.786" y2="571.891" gradientUnits="userSpaceOnUse">
<stop stop-color="#003289"/>
<stop offset="1" stop-color="#CCE3FF"/>
</linearGradient>
</defs>
</svg>
