<svg width="1440" height="699" viewBox="0 0 1440 699" fill="none" xmlns="http://www.w3.org/2000/svg">
<g opacity="0.57">
<circle opacity="0.52" cx="5" cy="23.9648" r="5" fill="#D9D9D9"/>
<circle opacity="0.52" cx="37" cy="23.9648" r="5" fill="#D9D9D9"/>
<circle opacity="0.52" cx="69" cy="23.9648" r="5" fill="#D9D9D9"/>
<circle opacity="0.52" cx="101" cy="23.9648" r="5" fill="#D9D9D9"/>
<circle opacity="0.52" cx="133" cy="23.9648" r="5" fill="#D9D9D9"/>
<circle opacity="0.52" cx="165" cy="23.9648" r="5" fill="#D9D9D9"/>
<circle opacity="0.52" cx="197" cy="23.9648" r="5" fill="#D9D9D9"/>
<circle opacity="0.52" cx="229" cy="23.9648" r="5" fill="#D9D9D9"/>
<circle opacity="0.52" cx="261" cy="23.9648" r="5" fill="#D9D9D9"/>
<circle opacity="0.52" cx="293" cy="23.9648" r="5" fill="#D9D9D9"/>
<circle opacity="0.52" cx="325" cy="23.9648" r="5" fill="#D9D9D9"/>
<circle opacity="0.52" cx="357" cy="23.9648" r="5" fill="#D9D9D9"/>
<circle opacity="0.52" cx="389" cy="23.9648" r="5" fill="#D9D9D9"/>
<circle opacity="0.52" cx="421" cy="23.9648" r="5" fill="#D9D9D9"/>
<circle opacity="0.52" cx="453" cy="23.9648" r="5" fill="#D9D9D9"/>
<circle opacity="0.52" cx="485" cy="23.9648" r="5" fill="#D9D9D9"/>
<circle opacity="0.52" cx="517" cy="23.9648" r="5" fill="#D9D9D9"/>
<circle opacity="0.52" cx="549" cy="23.9648" r="5" fill="#D9D9D9"/>
<circle opacity="0.52" cx="581" cy="23.9648" r="5" fill="#D9D9D9"/>
<circle opacity="0.52" cx="613" cy="23.9648" r="5" fill="#D9D9D9"/>
<circle opacity="0.52" cx="645" cy="23.9648" r="5" fill="#D9D9D9"/>
<circle opacity="0.52" cx="677" cy="23.9648" r="5" fill="#D9D9D9"/>
<circle opacity="0.52" cx="709" cy="23.9648" r="5" fill="#D9D9D9"/>
<circle opacity="0.52" cx="741" cy="23.9648" r="5" fill="#D9D9D9"/>
<circle opacity="0.52" cx="773" cy="23.9648" r="5" fill="#D9D9D9"/>
<circle opacity="0.52" cx="805" cy="23.9648" r="5" fill="#D9D9D9"/>
<circle opacity="0.52" cx="837" cy="23.9648" r="5" fill="#D9D9D9"/>
<circle opacity="0.52" cx="869" cy="23.9648" r="5" fill="#D9D9D9"/>
<circle opacity="0.52" cx="901" cy="23.9648" r="5" fill="#D9D9D9"/>
<circle opacity="0.52" cx="933" cy="23.9648" r="5" fill="#D9D9D9"/>
<circle opacity="0.52" cx="965" cy="23.9648" r="5" fill="#D9D9D9"/>
<circle opacity="0.52" cx="997" cy="23.9648" r="5" fill="#D9D9D9"/>
<circle opacity="0.52" cx="1029" cy="23.9648" r="5" fill="#D9D9D9"/>
<circle opacity="0.52" cx="1061" cy="23.9648" r="5" fill="#D9D9D9"/>
<circle opacity="0.52" cx="1093" cy="23.9648" r="5" fill="#D9D9D9"/>
<circle opacity="0.52" cx="1125" cy="23.9648" r="5" fill="#D9D9D9"/>
<circle opacity="0.52" cx="1157" cy="23.9648" r="5" fill="#D9D9D9"/>
<circle opacity="0.52" cx="1189" cy="23.9648" r="5" fill="#D9D9D9"/>
<circle opacity="0.52" cx="1221" cy="23.9648" r="5" fill="#D9D9D9"/>
<circle opacity="0.52" cx="1253" cy="23.9648" r="5" fill="#D9D9D9"/>
<circle opacity="0.52" cx="1285" cy="23.9648" r="5" fill="#D9D9D9"/>
<circle opacity="0.52" cx="1317" cy="23.9648" r="5" fill="#D9D9D9"/>
<circle opacity="0.52" cx="1349" cy="23.9648" r="5" fill="#D9D9D9"/>
<circle opacity="0.52" cx="1381" cy="23.9648" r="5" fill="#D9D9D9"/>
<circle opacity="0.52" cx="1413" cy="23.9648" r="5" fill="#D9D9D9"/>
<circle opacity="0.52" cx="5" cy="116.965" r="5" fill="#D9D9D9"/>
<circle opacity="0.52" cx="37" cy="116.965" r="5" fill="#D9D9D9"/>
<circle opacity="0.52" cx="69" cy="116.965" r="5" fill="#D9D9D9"/>
<circle opacity="0.52" cx="101" cy="116.965" r="5" fill="#D9D9D9"/>
<circle opacity="0.52" cx="133" cy="116.965" r="5" fill="#D9D9D9"/>
<circle opacity="0.52" cx="165" cy="116.965" r="5" fill="#D9D9D9"/>
<circle opacity="0.52" cx="197" cy="116.965" r="5" fill="#D9D9D9"/>
<circle opacity="0.52" cx="229" cy="116.965" r="5" fill="#D9D9D9"/>
<circle opacity="0.52" cx="261" cy="116.965" r="5" fill="#D9D9D9"/>
<circle opacity="0.52" cx="293" cy="116.965" r="5" fill="#D9D9D9"/>
<circle opacity="0.52" cx="325" cy="116.965" r="5" fill="#D9D9D9"/>
<circle opacity="0.52" cx="357" cy="116.965" r="5" fill="#D9D9D9"/>
<circle opacity="0.52" cx="389" cy="116.965" r="5" fill="#D9D9D9"/>
<circle opacity="0.52" cx="421" cy="116.965" r="5" fill="#D9D9D9"/>
<circle opacity="0.52" cx="453" cy="116.965" r="5" fill="#D9D9D9"/>
<circle opacity="0.52" cx="485" cy="116.965" r="5" fill="#D9D9D9"/>
<circle opacity="0.52" cx="517" cy="116.965" r="5" fill="#D9D9D9"/>
<circle opacity="0.52" cx="549" cy="116.965" r="5" fill="#D9D9D9"/>
<circle opacity="0.52" cx="581" cy="116.965" r="5" fill="#D9D9D9"/>
<circle opacity="0.52" cx="613" cy="116.965" r="5" fill="#D9D9D9"/>
<circle opacity="0.52" cx="645" cy="116.965" r="5" fill="#D9D9D9"/>
<circle opacity="0.52" cx="677" cy="116.965" r="5" fill="#D9D9D9"/>
<circle opacity="0.52" cx="709" cy="116.965" r="5" fill="#D9D9D9"/>
<circle opacity="0.52" cx="741" cy="116.965" r="5" fill="#D9D9D9"/>
<circle opacity="0.52" cx="773" cy="116.965" r="5" fill="#D9D9D9"/>
<circle opacity="0.52" cx="805" cy="116.965" r="5" fill="#D9D9D9"/>
<circle opacity="0.52" cx="837" cy="116.965" r="5" fill="#D9D9D9"/>
<circle opacity="0.52" cx="869" cy="116.965" r="5" fill="#D9D9D9"/>
<circle opacity="0.52" cx="901" cy="116.965" r="5" fill="#D9D9D9"/>
<circle opacity="0.52" cx="933" cy="116.965" r="5" fill="#D9D9D9"/>
<circle opacity="0.52" cx="965" cy="116.965" r="5" fill="#D9D9D9"/>
<circle opacity="0.52" cx="997" cy="116.965" r="5" fill="#D9D9D9"/>
<circle opacity="0.52" cx="1029" cy="116.965" r="5" fill="#D9D9D9"/>
<circle opacity="0.52" cx="1061" cy="116.965" r="5" fill="#D9D9D9"/>
<circle opacity="0.52" cx="1093" cy="116.965" r="5" fill="#D9D9D9"/>
<circle opacity="0.52" cx="1125" cy="116.965" r="5" fill="#D9D9D9"/>
<circle opacity="0.52" cx="1157" cy="116.965" r="5" fill="#D9D9D9"/>
<circle opacity="0.52" cx="1189" cy="116.965" r="5" fill="#D9D9D9"/>
<circle opacity="0.52" cx="1221" cy="116.965" r="5" fill="#D9D9D9"/>
<circle opacity="0.52" cx="1253" cy="116.965" r="5" fill="#D9D9D9"/>
<circle opacity="0.52" cx="1285" cy="116.965" r="5" fill="#D9D9D9"/>
<circle opacity="0.52" cx="1317" cy="116.965" r="5" fill="#D9D9D9"/>
<circle opacity="0.52" cx="1349" cy="116.965" r="5" fill="#D9D9D9"/>
<circle opacity="0.52" cx="1381" cy="116.965" r="5" fill="#D9D9D9"/>
<circle opacity="0.52" cx="1413" cy="116.965" r="5" fill="#D9D9D9"/>
<circle opacity="0.52" cx="5" cy="209.965" r="5" fill="#D9D9D9"/>
<circle opacity="0.52" cx="37" cy="209.965" r="5" fill="#D9D9D9"/>
<circle opacity="0.52" cx="69" cy="209.965" r="5" fill="#D9D9D9"/>
<circle opacity="0.52" cx="101" cy="209.965" r="5" fill="#D9D9D9"/>
<circle opacity="0.52" cx="133" cy="209.965" r="5" fill="#D9D9D9"/>
<circle opacity="0.52" cx="165" cy="209.965" r="5" fill="#D9D9D9"/>
<circle opacity="0.52" cx="197" cy="209.965" r="5" fill="#D9D9D9"/>
<circle opacity="0.52" cx="229" cy="209.965" r="5" fill="#D9D9D9"/>
<circle opacity="0.52" cx="261" cy="209.965" r="5" fill="#D9D9D9"/>
<circle opacity="0.52" cx="293" cy="209.965" r="5" fill="#D9D9D9"/>
<circle opacity="0.52" cx="325" cy="209.965" r="5" fill="#D9D9D9"/>
<circle opacity="0.52" cx="357" cy="209.965" r="5" fill="#D9D9D9"/>
<circle opacity="0.52" cx="389" cy="209.965" r="5" fill="#D9D9D9"/>
<circle opacity="0.52" cx="421" cy="209.965" r="5" fill="#D9D9D9"/>
<circle opacity="0.52" cx="453" cy="209.965" r="5" fill="#D9D9D9"/>
<circle opacity="0.52" cx="485" cy="209.965" r="5" fill="#D9D9D9"/>
<circle opacity="0.52" cx="517" cy="209.965" r="5" fill="#D9D9D9"/>
<circle opacity="0.52" cx="549" cy="209.965" r="5" fill="#D9D9D9"/>
<circle opacity="0.52" cx="581" cy="209.965" r="5" fill="#D9D9D9"/>
<circle opacity="0.52" cx="613" cy="209.965" r="5" fill="#D9D9D9"/>
<circle opacity="0.52" cx="645" cy="209.965" r="5" fill="#D9D9D9"/>
<circle opacity="0.52" cx="677" cy="209.965" r="5" fill="#D9D9D9"/>
<circle opacity="0.52" cx="709" cy="209.965" r="5" fill="#D9D9D9"/>
<circle opacity="0.52" cx="741" cy="209.965" r="5" fill="#D9D9D9"/>
<circle opacity="0.52" cx="773" cy="209.965" r="5" fill="#D9D9D9"/>
<circle opacity="0.52" cx="805" cy="209.965" r="5" fill="#D9D9D9"/>
<circle opacity="0.52" cx="837" cy="209.965" r="5" fill="#D9D9D9"/>
<circle opacity="0.52" cx="869" cy="209.965" r="5" fill="#D9D9D9"/>
<circle opacity="0.52" cx="901" cy="209.965" r="5" fill="#D9D9D9"/>
<circle opacity="0.52" cx="933" cy="209.965" r="5" fill="#D9D9D9"/>
<circle opacity="0.52" cx="965" cy="209.965" r="5" fill="#D9D9D9"/>
<circle opacity="0.52" cx="997" cy="209.965" r="5" fill="#D9D9D9"/>
<circle opacity="0.52" cx="1029" cy="209.965" r="5" fill="#D9D9D9"/>
<circle opacity="0.52" cx="1061" cy="209.965" r="5" fill="#D9D9D9"/>
<circle opacity="0.52" cx="1093" cy="209.965" r="5" fill="#D9D9D9"/>
<circle opacity="0.52" cx="1125" cy="209.965" r="5" fill="#D9D9D9"/>
<circle opacity="0.52" cx="1157" cy="209.965" r="5" fill="#D9D9D9"/>
<circle opacity="0.52" cx="1189" cy="209.965" r="5" fill="#D9D9D9"/>
<circle opacity="0.52" cx="1221" cy="209.965" r="5" fill="#D9D9D9"/>
<circle opacity="0.52" cx="1253" cy="209.965" r="5" fill="#D9D9D9"/>
<circle opacity="0.52" cx="1285" cy="209.965" r="5" fill="#D9D9D9"/>
<circle opacity="0.52" cx="1317" cy="209.965" r="5" fill="#D9D9D9"/>
<circle opacity="0.52" cx="1349" cy="209.965" r="5" fill="#D9D9D9"/>
<circle opacity="0.52" cx="1381" cy="209.965" r="5" fill="#D9D9D9"/>
<circle opacity="0.52" cx="1413" cy="209.965" r="5" fill="#D9D9D9"/>
<circle opacity="0.52" cx="5" cy="302.965" r="5" fill="#D9D9D9"/>
<circle opacity="0.52" cx="37" cy="302.965" r="5" fill="#D9D9D9"/>
<circle opacity="0.52" cx="69" cy="302.965" r="5" fill="#D9D9D9"/>
<circle opacity="0.52" cx="101" cy="302.965" r="5" fill="#D9D9D9"/>
<circle opacity="0.52" cx="133" cy="302.965" r="5" fill="#D9D9D9"/>
<circle opacity="0.52" cx="165" cy="302.965" r="5" fill="#D9D9D9"/>
<circle opacity="0.52" cx="197" cy="302.965" r="5" fill="#D9D9D9"/>
<circle opacity="0.52" cx="229" cy="302.965" r="5" fill="#D9D9D9"/>
<circle opacity="0.52" cx="261" cy="302.965" r="5" fill="#D9D9D9"/>
<circle opacity="0.52" cx="293" cy="302.965" r="5" fill="#D9D9D9"/>
<circle opacity="0.52" cx="325" cy="302.965" r="5" fill="#D9D9D9"/>
<circle opacity="0.52" cx="357" cy="302.965" r="5" fill="#D9D9D9"/>
<circle opacity="0.52" cx="389" cy="302.965" r="5" fill="#D9D9D9"/>
<circle opacity="0.52" cx="421" cy="302.965" r="5" fill="#D9D9D9"/>
<circle opacity="0.52" cx="453" cy="302.965" r="5" fill="#D9D9D9"/>
<circle opacity="0.52" cx="485" cy="302.965" r="5" fill="#D9D9D9"/>
<circle opacity="0.52" cx="517" cy="302.965" r="5" fill="#D9D9D9"/>
<circle opacity="0.52" cx="549" cy="302.965" r="5" fill="#D9D9D9"/>
<circle opacity="0.52" cx="581" cy="302.965" r="5" fill="#D9D9D9"/>
<circle opacity="0.52" cx="613" cy="302.965" r="5" fill="#D9D9D9"/>
<circle opacity="0.52" cx="645" cy="302.965" r="5" fill="#D9D9D9"/>
<circle opacity="0.52" cx="677" cy="302.965" r="5" fill="#D9D9D9"/>
<circle opacity="0.52" cx="709" cy="302.965" r="5" fill="#D9D9D9"/>
<circle opacity="0.52" cx="741" cy="302.965" r="5" fill="#D9D9D9"/>
<circle opacity="0.52" cx="773" cy="302.965" r="5" fill="#D9D9D9"/>
<circle opacity="0.52" cx="805" cy="302.965" r="5" fill="#D9D9D9"/>
<circle opacity="0.52" cx="837" cy="302.965" r="5" fill="#D9D9D9"/>
<circle opacity="0.52" cx="869" cy="302.965" r="5" fill="#D9D9D9"/>
<circle opacity="0.52" cx="901" cy="302.965" r="5" fill="#D9D9D9"/>
<circle opacity="0.52" cx="933" cy="302.965" r="5" fill="#D9D9D9"/>
<circle opacity="0.52" cx="965" cy="302.965" r="5" fill="#D9D9D9"/>
<circle opacity="0.52" cx="997" cy="302.965" r="5" fill="#D9D9D9"/>
<circle opacity="0.52" cx="1029" cy="302.965" r="5" fill="#D9D9D9"/>
<circle opacity="0.52" cx="1061" cy="302.965" r="5" fill="#D9D9D9"/>
<circle opacity="0.52" cx="1093" cy="302.965" r="5" fill="#D9D9D9"/>
<circle opacity="0.52" cx="1125" cy="302.965" r="5" fill="#D9D9D9"/>
<circle opacity="0.52" cx="1157" cy="302.965" r="5" fill="#D9D9D9"/>
<circle opacity="0.52" cx="1189" cy="302.965" r="5" fill="#D9D9D9"/>
<circle opacity="0.52" cx="1221" cy="302.965" r="5" fill="#D9D9D9"/>
<circle opacity="0.52" cx="1253" cy="302.965" r="5" fill="#D9D9D9"/>
<circle opacity="0.52" cx="1285" cy="302.965" r="5" fill="#D9D9D9"/>
<circle opacity="0.52" cx="1317" cy="302.965" r="5" fill="#D9D9D9"/>
<circle opacity="0.52" cx="1349" cy="302.965" r="5" fill="#D9D9D9"/>
<circle opacity="0.52" cx="1381" cy="302.965" r="5" fill="#D9D9D9"/>
<circle opacity="0.52" cx="1413" cy="302.965" r="5" fill="#D9D9D9"/>
<circle opacity="0.52" cx="5" cy="395.965" r="5" fill="#D9D9D9"/>
<circle opacity="0.52" cx="37" cy="395.965" r="5" fill="#D9D9D9"/>
<circle opacity="0.52" cx="69" cy="395.965" r="5" fill="#D9D9D9"/>
<circle opacity="0.52" cx="101" cy="395.965" r="5" fill="#D9D9D9"/>
<circle opacity="0.52" cx="133" cy="395.965" r="5" fill="#D9D9D9"/>
<circle opacity="0.52" cx="165" cy="395.965" r="5" fill="#D9D9D9"/>
<circle opacity="0.52" cx="197" cy="395.965" r="5" fill="#D9D9D9"/>
<circle opacity="0.52" cx="229" cy="395.965" r="5" fill="#D9D9D9"/>
<circle opacity="0.52" cx="261" cy="395.965" r="5" fill="#D9D9D9"/>
<circle opacity="0.52" cx="293" cy="395.965" r="5" fill="#D9D9D9"/>
<circle opacity="0.52" cx="325" cy="395.965" r="5" fill="#D9D9D9"/>
<circle opacity="0.52" cx="357" cy="395.965" r="5" fill="#D9D9D9"/>
<circle opacity="0.52" cx="389" cy="395.965" r="5" fill="#D9D9D9"/>
<circle opacity="0.52" cx="421" cy="395.965" r="5" fill="#D9D9D9"/>
<circle opacity="0.52" cx="453" cy="395.965" r="5" fill="#D9D9D9"/>
<circle opacity="0.52" cx="485" cy="395.965" r="5" fill="#D9D9D9"/>
<circle opacity="0.52" cx="517" cy="395.965" r="5" fill="#D9D9D9"/>
<circle opacity="0.52" cx="549" cy="395.965" r="5" fill="#D9D9D9"/>
<circle opacity="0.52" cx="581" cy="395.965" r="5" fill="#D9D9D9"/>
<circle opacity="0.52" cx="613" cy="395.965" r="5" fill="#D9D9D9"/>
<circle opacity="0.52" cx="645" cy="395.965" r="5" fill="#D9D9D9"/>
<circle opacity="0.52" cx="677" cy="395.965" r="5" fill="#D9D9D9"/>
<circle opacity="0.52" cx="709" cy="395.965" r="5" fill="#D9D9D9"/>
<circle opacity="0.52" cx="741" cy="395.965" r="5" fill="#D9D9D9"/>
<circle opacity="0.52" cx="773" cy="395.965" r="5" fill="#D9D9D9"/>
<circle opacity="0.52" cx="805" cy="395.965" r="5" fill="#D9D9D9"/>
<circle opacity="0.52" cx="837" cy="395.965" r="5" fill="#D9D9D9"/>
<circle opacity="0.52" cx="869" cy="395.965" r="5" fill="#D9D9D9"/>
<circle opacity="0.52" cx="901" cy="395.965" r="5" fill="#D9D9D9"/>
<circle opacity="0.52" cx="933" cy="395.965" r="5" fill="#D9D9D9"/>
<circle opacity="0.52" cx="965" cy="395.965" r="5" fill="#D9D9D9"/>
<circle opacity="0.52" cx="997" cy="395.965" r="5" fill="#D9D9D9"/>
<circle opacity="0.52" cx="1029" cy="395.965" r="5" fill="#D9D9D9"/>
<circle opacity="0.52" cx="1061" cy="395.965" r="5" fill="#D9D9D9"/>
<circle opacity="0.52" cx="1093" cy="395.965" r="5" fill="#D9D9D9"/>
<circle opacity="0.52" cx="1125" cy="395.965" r="5" fill="#D9D9D9"/>
<circle opacity="0.52" cx="1157" cy="395.965" r="5" fill="#D9D9D9"/>
<circle opacity="0.52" cx="1189" cy="395.965" r="5" fill="#D9D9D9"/>
<circle opacity="0.52" cx="1221" cy="395.965" r="5" fill="#D9D9D9"/>
<circle opacity="0.52" cx="1253" cy="395.965" r="5" fill="#D9D9D9"/>
<circle opacity="0.52" cx="1285" cy="395.965" r="5" fill="#D9D9D9"/>
<circle opacity="0.52" cx="1317" cy="395.965" r="5" fill="#D9D9D9"/>
<circle opacity="0.52" cx="1349" cy="395.965" r="5" fill="#D9D9D9"/>
<circle opacity="0.52" cx="1381" cy="395.965" r="5" fill="#D9D9D9"/>
<circle opacity="0.52" cx="1413" cy="395.965" r="5" fill="#D9D9D9"/>
<circle opacity="0.52" cx="5" cy="488.965" r="5" fill="#D9D9D9"/>
<circle opacity="0.52" cx="37" cy="488.965" r="5" fill="#D9D9D9"/>
<circle opacity="0.52" cx="69" cy="488.965" r="5" fill="#D9D9D9"/>
<circle opacity="0.52" cx="101" cy="488.965" r="5" fill="#D9D9D9"/>
<circle opacity="0.52" cx="133" cy="488.965" r="5" fill="#D9D9D9"/>
<circle opacity="0.52" cx="165" cy="488.965" r="5" fill="#D9D9D9"/>
<circle opacity="0.52" cx="197" cy="488.965" r="5" fill="#D9D9D9"/>
<circle opacity="0.52" cx="229" cy="488.965" r="5" fill="#D9D9D9"/>
<circle opacity="0.52" cx="261" cy="488.965" r="5" fill="#D9D9D9"/>
<circle opacity="0.52" cx="293" cy="488.965" r="5" fill="#D9D9D9"/>
<circle opacity="0.52" cx="325" cy="488.965" r="5" fill="#D9D9D9"/>
<circle opacity="0.52" cx="357" cy="488.965" r="5" fill="#D9D9D9"/>
<circle opacity="0.52" cx="389" cy="488.965" r="5" fill="#D9D9D9"/>
<circle opacity="0.52" cx="421" cy="488.965" r="5" fill="#D9D9D9"/>
<circle opacity="0.52" cx="453" cy="488.965" r="5" fill="#D9D9D9"/>
<circle opacity="0.52" cx="485" cy="488.965" r="5" fill="#D9D9D9"/>
<circle opacity="0.52" cx="517" cy="488.965" r="5" fill="#D9D9D9"/>
<circle opacity="0.52" cx="549" cy="488.965" r="5" fill="#D9D9D9"/>
<circle opacity="0.52" cx="581" cy="488.965" r="5" fill="#D9D9D9"/>
<circle opacity="0.52" cx="613" cy="488.965" r="5" fill="#D9D9D9"/>
<circle opacity="0.52" cx="645" cy="488.965" r="5" fill="#D9D9D9"/>
<circle opacity="0.52" cx="677" cy="488.965" r="5" fill="#D9D9D9"/>
<circle opacity="0.52" cx="709" cy="488.965" r="5" fill="#D9D9D9"/>
<circle opacity="0.52" cx="741" cy="488.965" r="5" fill="#D9D9D9"/>
<circle opacity="0.52" cx="773" cy="488.965" r="5" fill="#D9D9D9"/>
<circle opacity="0.52" cx="805" cy="488.965" r="5" fill="#D9D9D9"/>
<circle opacity="0.52" cx="837" cy="488.965" r="5" fill="#D9D9D9"/>
<circle opacity="0.52" cx="869" cy="488.965" r="5" fill="#D9D9D9"/>
<circle opacity="0.52" cx="901" cy="488.965" r="5" fill="#D9D9D9"/>
<circle opacity="0.52" cx="933" cy="488.965" r="5" fill="#D9D9D9"/>
<circle opacity="0.52" cx="965" cy="488.965" r="5" fill="#D9D9D9"/>
<circle opacity="0.52" cx="997" cy="488.965" r="5" fill="#D9D9D9"/>
<circle opacity="0.52" cx="1029" cy="488.965" r="5" fill="#D9D9D9"/>
<circle opacity="0.52" cx="1061" cy="488.965" r="5" fill="#D9D9D9"/>
<circle opacity="0.52" cx="1093" cy="488.965" r="5" fill="#D9D9D9"/>
<circle opacity="0.52" cx="1125" cy="488.965" r="5" fill="#D9D9D9"/>
<circle opacity="0.52" cx="1157" cy="488.965" r="5" fill="#D9D9D9"/>
<circle opacity="0.52" cx="1189" cy="488.965" r="5" fill="#D9D9D9"/>
<circle opacity="0.52" cx="1221" cy="488.965" r="5" fill="#D9D9D9"/>
<circle opacity="0.52" cx="1253" cy="488.965" r="5" fill="#D9D9D9"/>
<circle opacity="0.52" cx="1285" cy="488.965" r="5" fill="#D9D9D9"/>
<circle opacity="0.52" cx="1317" cy="488.965" r="5" fill="#D9D9D9"/>
<circle opacity="0.52" cx="1349" cy="488.965" r="5" fill="#D9D9D9"/>
<circle opacity="0.52" cx="1381" cy="488.965" r="5" fill="#D9D9D9"/>
<circle opacity="0.52" cx="1413" cy="488.965" r="5" fill="#D9D9D9"/>
<circle opacity="0.52" cx="5" cy="581.965" r="5" fill="#D9D9D9"/>
<circle opacity="0.52" cx="37" cy="581.965" r="5" fill="#D9D9D9"/>
<circle opacity="0.52" cx="69" cy="581.965" r="5" fill="#D9D9D9"/>
<circle opacity="0.52" cx="101" cy="581.965" r="5" fill="#D9D9D9"/>
<circle opacity="0.52" cx="133" cy="581.965" r="5" fill="#D9D9D9"/>
<circle opacity="0.52" cx="165" cy="581.965" r="5" fill="#D9D9D9"/>
<circle opacity="0.52" cx="197" cy="581.965" r="5" fill="#D9D9D9"/>
<circle opacity="0.52" cx="229" cy="581.965" r="5" fill="#D9D9D9"/>
<circle opacity="0.52" cx="261" cy="581.965" r="5" fill="#D9D9D9"/>
<circle opacity="0.52" cx="293" cy="581.965" r="5" fill="#D9D9D9"/>
<circle opacity="0.52" cx="325" cy="581.965" r="5" fill="#D9D9D9"/>
<circle opacity="0.52" cx="357" cy="581.965" r="5" fill="#D9D9D9"/>
<circle opacity="0.52" cx="389" cy="581.965" r="5" fill="#D9D9D9"/>
<circle opacity="0.52" cx="421" cy="581.965" r="5" fill="#D9D9D9"/>
<circle opacity="0.52" cx="453" cy="581.965" r="5" fill="#D9D9D9"/>
<circle opacity="0.52" cx="485" cy="581.965" r="5" fill="#D9D9D9"/>
<circle opacity="0.52" cx="517" cy="581.965" r="5" fill="#D9D9D9"/>
<circle opacity="0.52" cx="549" cy="581.965" r="5" fill="#D9D9D9"/>
<circle opacity="0.52" cx="581" cy="581.965" r="5" fill="#D9D9D9"/>
<circle opacity="0.52" cx="613" cy="581.965" r="5" fill="#D9D9D9"/>
<circle opacity="0.52" cx="645" cy="581.965" r="5" fill="#D9D9D9"/>
<circle opacity="0.52" cx="677" cy="581.965" r="5" fill="#D9D9D9"/>
<circle opacity="0.52" cx="709" cy="581.965" r="5" fill="#D9D9D9"/>
<circle opacity="0.52" cx="741" cy="581.965" r="5" fill="#D9D9D9"/>
<circle opacity="0.52" cx="773" cy="581.965" r="5" fill="#D9D9D9"/>
<circle opacity="0.52" cx="805" cy="581.965" r="5" fill="#D9D9D9"/>
<circle opacity="0.52" cx="837" cy="581.965" r="5" fill="#D9D9D9"/>
<circle opacity="0.52" cx="869" cy="581.965" r="5" fill="#D9D9D9"/>
<circle opacity="0.52" cx="901" cy="581.965" r="5" fill="#D9D9D9"/>
<circle opacity="0.52" cx="933" cy="581.965" r="5" fill="#D9D9D9"/>
<circle opacity="0.52" cx="965" cy="581.965" r="5" fill="#D9D9D9"/>
<circle opacity="0.52" cx="997" cy="581.965" r="5" fill="#D9D9D9"/>
<circle opacity="0.52" cx="1029" cy="581.965" r="5" fill="#D9D9D9"/>
<circle opacity="0.52" cx="1061" cy="581.965" r="5" fill="#D9D9D9"/>
<circle opacity="0.52" cx="1093" cy="581.965" r="5" fill="#D9D9D9"/>
<circle opacity="0.52" cx="1125" cy="581.965" r="5" fill="#D9D9D9"/>
<circle opacity="0.52" cx="1157" cy="581.965" r="5" fill="#D9D9D9"/>
<circle opacity="0.52" cx="1189" cy="581.965" r="5" fill="#D9D9D9"/>
<circle opacity="0.52" cx="1221" cy="581.965" r="5" fill="#D9D9D9"/>
<circle opacity="0.52" cx="1253" cy="581.965" r="5" fill="#D9D9D9"/>
<circle opacity="0.52" cx="1285" cy="581.965" r="5" fill="#D9D9D9"/>
<circle opacity="0.52" cx="1317" cy="581.965" r="5" fill="#D9D9D9"/>
<circle opacity="0.52" cx="1349" cy="581.965" r="5" fill="#D9D9D9"/>
<circle opacity="0.52" cx="1381" cy="581.965" r="5" fill="#D9D9D9"/>
<circle opacity="0.52" cx="1413" cy="581.965" r="5" fill="#D9D9D9"/>
<circle opacity="0.52" cx="5" cy="674.965" r="5" fill="#D9D9D9"/>
<circle opacity="0.52" cx="37" cy="674.965" r="5" fill="#D9D9D9"/>
<circle opacity="0.52" cx="69" cy="674.965" r="5" fill="#D9D9D9"/>
<circle opacity="0.52" cx="101" cy="674.965" r="5" fill="#D9D9D9"/>
<circle opacity="0.52" cx="133" cy="674.965" r="5" fill="#D9D9D9"/>
<circle opacity="0.52" cx="165" cy="674.965" r="5" fill="#D9D9D9"/>
<circle opacity="0.52" cx="197" cy="674.965" r="5" fill="#D9D9D9"/>
<circle opacity="0.52" cx="229" cy="674.965" r="5" fill="#D9D9D9"/>
<circle opacity="0.52" cx="261" cy="674.965" r="5" fill="#D9D9D9"/>
<circle opacity="0.52" cx="293" cy="674.965" r="5" fill="#D9D9D9"/>
<circle opacity="0.52" cx="325" cy="674.965" r="5" fill="#D9D9D9"/>
<circle opacity="0.52" cx="357" cy="674.965" r="5" fill="#D9D9D9"/>
<circle opacity="0.52" cx="389" cy="674.965" r="5" fill="#D9D9D9"/>
<circle opacity="0.52" cx="421" cy="674.965" r="5" fill="#D9D9D9"/>
<circle opacity="0.52" cx="453" cy="674.965" r="5" fill="#D9D9D9"/>
<circle opacity="0.52" cx="485" cy="674.965" r="5" fill="#D9D9D9"/>
<circle opacity="0.52" cx="517" cy="674.965" r="5" fill="#D9D9D9"/>
<circle opacity="0.52" cx="549" cy="674.965" r="5" fill="#D9D9D9"/>
<circle opacity="0.52" cx="581" cy="674.965" r="5" fill="#D9D9D9"/>
<circle opacity="0.52" cx="613" cy="674.965" r="5" fill="#D9D9D9"/>
<circle opacity="0.52" cx="645" cy="674.965" r="5" fill="#D9D9D9"/>
<circle opacity="0.52" cx="677" cy="674.965" r="5" fill="#D9D9D9"/>
<circle opacity="0.52" cx="709" cy="674.965" r="5" fill="#D9D9D9"/>
<circle opacity="0.52" cx="741" cy="674.965" r="5" fill="#D9D9D9"/>
<circle opacity="0.52" cx="773" cy="674.965" r="5" fill="#D9D9D9"/>
<circle opacity="0.52" cx="805" cy="674.965" r="5" fill="#D9D9D9"/>
<circle opacity="0.52" cx="837" cy="674.965" r="5" fill="#D9D9D9"/>
<circle opacity="0.52" cx="869" cy="674.965" r="5" fill="#D9D9D9"/>
<circle opacity="0.52" cx="901" cy="674.965" r="5" fill="#D9D9D9"/>
<circle opacity="0.52" cx="933" cy="674.965" r="5" fill="#D9D9D9"/>
<circle opacity="0.52" cx="965" cy="674.965" r="5" fill="#D9D9D9"/>
<circle opacity="0.52" cx="997" cy="674.965" r="5" fill="#D9D9D9"/>
<circle opacity="0.52" cx="1029" cy="674.965" r="5" fill="#D9D9D9"/>
<circle opacity="0.52" cx="1061" cy="674.965" r="5" fill="#D9D9D9"/>
<circle opacity="0.52" cx="1093" cy="674.965" r="5" fill="#D9D9D9"/>
<circle opacity="0.52" cx="1125" cy="674.965" r="5" fill="#D9D9D9"/>
<circle opacity="0.52" cx="1157" cy="674.965" r="5" fill="#D9D9D9"/>
<circle opacity="0.52" cx="1189" cy="674.965" r="5" fill="#D9D9D9"/>
<circle opacity="0.52" cx="1221" cy="674.965" r="5" fill="#D9D9D9"/>
<circle opacity="0.52" cx="1253" cy="674.965" r="5" fill="#D9D9D9"/>
<circle opacity="0.52" cx="1285" cy="674.965" r="5" fill="#D9D9D9"/>
<circle opacity="0.52" cx="1317" cy="674.965" r="5" fill="#D9D9D9"/>
<circle opacity="0.52" cx="1349" cy="674.965" r="5" fill="#D9D9D9"/>
<circle opacity="0.52" cx="1381" cy="674.965" r="5" fill="#D9D9D9"/>
<circle opacity="0.52" cx="1413" cy="674.965" r="5" fill="#D9D9D9"/>
</g>
</svg>
