<svg width="56" height="42" viewBox="0 0 56 42" fill="none" xmlns="http://www.w3.org/2000/svg">
<g filter="url(#filter0_d_889_3589)">
<path d="M24.3514 26.6621C24.3514 29.4618 19.8122 31.7304 14.2147 31.7304C8.6173 31.7304 4.07812 29.4618 4.07812 26.6621V22.6074H24.3514V26.6621Z" fill="url(#paint0_linear_889_3589)"/>
<path d="M24.3514 22.6083C24.3514 25.4061 19.8122 27.6767 14.2147 27.6767C8.6173 27.6767 4.07812 25.4061 4.07812 22.6083C4.07812 19.8106 8.6173 17.54 14.2147 17.54C19.8122 17.54 24.3514 19.8106 24.3514 22.6083Z" fill="url(#paint1_linear_889_3589)"/>
<path d="M24.3514 18.5546C24.3514 21.3544 19.8122 23.623 14.2147 23.623C8.6173 23.623 4.07812 21.3544 4.07812 18.5546V14.5H24.3514V18.5546Z" fill="url(#paint2_linear_889_3589)"/>
<path d="M24.3514 14.499C24.3514 17.2967 19.8122 19.5673 14.2147 19.5673C8.6173 19.5673 4.07812 17.2967 4.07812 14.499C4.07812 11.7013 8.6173 9.43066 14.2147 9.43066C19.8122 9.43066 24.3514 11.7013 24.3514 14.499Z" fill="url(#paint3_linear_889_3589)"/>
<path d="M24.3514 10.4433C24.3514 13.243 19.8122 15.5116 14.2147 15.5116C8.6173 15.5116 4.07812 13.243 4.07812 10.4433V6.38867H24.3514V10.4433Z" fill="url(#paint4_linear_889_3589)"/>
<path d="M24.3514 6.38862C24.3514 9.18632 19.8122 11.4569 14.2147 11.4569C8.6173 11.4569 4.07812 9.18632 4.07812 6.38862C4.07812 3.59091 8.6173 1.32031 14.2147 1.32031C19.8122 1.32031 24.3514 3.59091 24.3514 6.38862Z" fill="url(#paint5_linear_889_3589)"/>
</g>
<g filter="url(#filter1_d_889_3589)">
<path d="M52.2264 25.6484C52.2264 28.4481 47.6872 30.7167 42.0897 30.7167C36.4923 30.7167 31.9531 28.4481 31.9531 25.6484V21.5938H52.2264V25.6484Z" fill="url(#paint6_linear_889_3589)"/>
<path d="M52.2264 21.5937C52.2264 24.3914 47.6872 26.662 42.0897 26.662C36.4923 26.662 31.9531 24.3914 31.9531 21.5937C31.9531 18.796 36.4923 16.5254 42.0897 16.5254C47.6872 16.5254 52.2264 18.796 52.2264 21.5937Z" fill="url(#paint7_linear_889_3589)"/>
<path d="M52.2264 17.54C52.2264 20.3397 47.6872 22.6083 42.0897 22.6083C36.4923 22.6083 31.9531 20.3397 31.9531 17.54V13.4854H52.2264V17.54Z" fill="url(#paint8_linear_889_3589)"/>
<path d="M52.2264 13.4843C52.2264 16.282 47.6872 18.5526 42.0897 18.5526C36.4923 18.5526 31.9531 16.282 31.9531 13.4843C31.9531 10.6866 36.4923 8.41602 42.0897 8.41602C47.6872 8.41602 52.2264 10.6866 52.2264 13.4843Z" fill="url(#paint9_linear_889_3589)"/>
<path d="M52.2264 9.43062C52.2264 12.2304 47.6872 14.4989 42.0897 14.4989C36.4923 14.4989 31.9531 12.2304 31.9531 9.43062V5.37598H52.2264V9.43062Z" fill="url(#paint10_linear_889_3589)"/>
<path d="M52.2264 5.37592C52.2264 8.17363 47.6872 10.4442 42.0897 10.4442C36.4923 10.4442 31.9531 8.17363 31.9531 5.37592C31.9531 2.57822 36.4923 0.307617 42.0897 0.307617C47.6872 0.307617 52.2264 2.57822 52.2264 5.37592Z" fill="url(#paint11_linear_889_3589)"/>
</g>
<g filter="url(#filter2_d_889_3589)">
<path d="M36.2333 33.774C36.2333 36.0051 32.6162 37.8128 28.1557 37.8128C23.6953 37.8128 20.0781 36.0051 20.0781 33.774V30.543H36.2333V33.774Z" fill="url(#paint12_linear_889_3589)"/>
<path d="M36.2333 30.5427C36.2333 32.7721 32.6162 34.5815 28.1557 34.5815C23.6953 34.5815 20.0781 32.7721 20.0781 30.5427C20.0781 28.3133 23.6953 26.5039 28.1557 26.5039C32.6162 26.5039 36.2333 28.3133 36.2333 30.5427Z" fill="url(#paint13_linear_889_3589)"/>
<path d="M36.2333 27.3121C36.2333 29.5431 32.6162 31.3509 28.1557 31.3509C23.6953 31.3509 20.0781 29.5431 20.0781 27.3121V24.0811H36.2333V27.3121Z" fill="url(#paint14_linear_889_3589)"/>
<path d="M36.2333 24.0808C36.2333 26.3102 32.6162 28.1196 28.1557 28.1196C23.6953 28.1196 20.0781 26.3102 20.0781 24.0808C20.0781 21.8514 23.6953 20.042 28.1557 20.042C32.6162 20.042 36.2333 21.8514 36.2333 24.0808Z" fill="url(#paint15_linear_889_3589)"/>
<path d="M36.2333 20.8502C36.2333 23.0812 32.6162 24.889 28.1557 24.889C23.6953 24.889 20.0781 23.0812 20.0781 20.8502V17.6191H36.2333V20.8502Z" fill="url(#paint16_linear_889_3589)"/>
<path d="M36.2333 17.6179C36.2333 19.8473 32.6162 21.6567 28.1557 21.6567C23.6953 21.6567 20.0781 19.8473 20.0781 17.6179C20.0781 15.3885 23.6953 13.5791 28.1557 13.5791C32.6162 13.5791 36.2333 15.3885 36.2333 17.6179Z" fill="url(#paint17_linear_889_3589)"/>
</g>
<defs>
<filter id="filter0_d_889_3589" x="0.986459" y="1.32031" width="23.3651" height="32.995" filterUnits="userSpaceOnUse" color-interpolation-filters="sRGB">
<feFlood flood-opacity="0" result="BackgroundImageFix"/>
<feColorMatrix in="SourceAlpha" type="matrix" values="0 0 0 0 0 0 0 0 0 0 0 0 0 0 0 0 0 0 127 0" result="hardAlpha"/>
<feOffset dx="-2.02732" dy="1.52049"/>
<feGaussianBlur stdDeviation="0.532172"/>
<feComposite in2="hardAlpha" operator="out"/>
<feColorMatrix type="matrix" values="0 0 0 0 0 0 0 0 0 0 0 0 0 0 0 0 0 0 0.43 0"/>
<feBlend mode="normal" in2="BackgroundImageFix" result="effect1_dropShadow_889_3589"/>
<feBlend mode="normal" in="SourceGraphic" in2="effect1_dropShadow_889_3589" result="shape"/>
</filter>
<filter id="filter1_d_889_3589" x="31.7504" y="0.307617" width="23.7199" height="34.1597" filterUnits="userSpaceOnUse" color-interpolation-filters="sRGB">
<feFlood flood-opacity="0" result="BackgroundImageFix"/>
<feColorMatrix in="SourceAlpha" type="matrix" values="0 0 0 0 0 0 0 0 0 0 0 0 0 0 0 0 0 0 127 0" result="hardAlpha"/>
<feOffset dx="1.52049" dy="2.02732"/>
<feGaussianBlur stdDeviation="0.861612"/>
<feComposite in2="hardAlpha" operator="out"/>
<feColorMatrix type="matrix" values="0 0 0 0 0 0 0 0 0 0 0 0 0 0 0 0 0 0 0.49 0"/>
<feBlend mode="normal" in2="BackgroundImageFix" result="effect1_dropShadow_889_3589"/>
<feBlend mode="normal" in="SourceGraphic" in2="effect1_dropShadow_889_3589" result="shape"/>
</filter>
<filter id="filter2_d_889_3589" x="18.0508" y="13.5791" width="20.2109" height="28.288" filterUnits="userSpaceOnUse" color-interpolation-filters="sRGB">
<feFlood flood-opacity="0" result="BackgroundImageFix"/>
<feColorMatrix in="SourceAlpha" type="matrix" values="0 0 0 0 0 0 0 0 0 0 0 0 0 0 0 0 0 0 127 0" result="hardAlpha"/>
<feOffset dy="2.02732"/>
<feGaussianBlur stdDeviation="1.01366"/>
<feComposite in2="hardAlpha" operator="out"/>
<feColorMatrix type="matrix" values="0 0 0 0 0 0 0 0 0 0 0 0 0 0 0 0 0 0 0.51 0"/>
<feBlend mode="normal" in2="BackgroundImageFix" result="effect1_dropShadow_889_3589"/>
<feBlend mode="normal" in="SourceGraphic" in2="effect1_dropShadow_889_3589" result="shape"/>
</filter>
<linearGradient id="paint0_linear_889_3589" x1="9.45458" y1="24.8456" x2="12.7997" y2="32.2859" gradientUnits="userSpaceOnUse">
<stop stop-color="#FFA43D"/>
<stop offset="1" stop-color="#FA9E00"/>
</linearGradient>
<linearGradient id="paint1_linear_889_3589" x1="24.3797" y1="27.6726" x2="15.6379" y2="13.3698" gradientUnits="userSpaceOnUse">
<stop stop-color="#FFDD00"/>
<stop offset="0.0001" stop-color="#FFE350"/>
<stop offset="1" stop-color="#FFCD0F"/>
</linearGradient>
<linearGradient id="paint2_linear_889_3589" x1="9.45458" y1="16.7382" x2="12.7997" y2="24.1784" gradientUnits="userSpaceOnUse">
<stop stop-color="#FFA43D"/>
<stop offset="1" stop-color="#FA9E00"/>
</linearGradient>
<linearGradient id="paint3_linear_889_3589" x1="24.3797" y1="19.5632" x2="15.6379" y2="5.26046" gradientUnits="userSpaceOnUse">
<stop stop-color="#FFDD00"/>
<stop offset="0.0001" stop-color="#FFE350"/>
<stop offset="1" stop-color="#FFCD0F"/>
</linearGradient>
<linearGradient id="paint4_linear_889_3589" x1="9.45458" y1="8.62684" x2="12.7997" y2="16.0671" gradientUnits="userSpaceOnUse">
<stop stop-color="#FFA43D"/>
<stop offset="1" stop-color="#FA9E00"/>
</linearGradient>
<linearGradient id="paint5_linear_889_3589" x1="24.3797" y1="11.4529" x2="15.6379" y2="-2.84989" gradientUnits="userSpaceOnUse">
<stop stop-color="#FFDD00"/>
<stop offset="0.0001" stop-color="#FFE350"/>
<stop offset="1" stop-color="#FFCD0F"/>
</linearGradient>
<linearGradient id="paint6_linear_889_3589" x1="37.3296" y1="23.8319" x2="40.6747" y2="31.2722" gradientUnits="userSpaceOnUse">
<stop stop-color="#FFA43D"/>
<stop offset="1" stop-color="#FA9E00"/>
</linearGradient>
<linearGradient id="paint7_linear_889_3589" x1="52.2547" y1="26.6579" x2="43.5129" y2="12.3552" gradientUnits="userSpaceOnUse">
<stop stop-color="#FFDD00"/>
<stop offset="0.0001" stop-color="#FFE350"/>
<stop offset="1" stop-color="#FFCD0F"/>
</linearGradient>
<linearGradient id="paint8_linear_889_3589" x1="37.3296" y1="15.7235" x2="40.6747" y2="23.1638" gradientUnits="userSpaceOnUse">
<stop stop-color="#FFA43D"/>
<stop offset="1" stop-color="#FA9E00"/>
</linearGradient>
<linearGradient id="paint9_linear_889_3589" x1="52.2547" y1="18.5486" x2="43.5129" y2="4.24581" gradientUnits="userSpaceOnUse">
<stop stop-color="#FFDD00"/>
<stop offset="0.0001" stop-color="#FFE350"/>
<stop offset="1" stop-color="#FFCD0F"/>
</linearGradient>
<linearGradient id="paint10_linear_889_3589" x1="37.3296" y1="7.61414" x2="40.6747" y2="15.0544" gradientUnits="userSpaceOnUse">
<stop stop-color="#FFA43D"/>
<stop offset="1" stop-color="#FA9E00"/>
</linearGradient>
<linearGradient id="paint11_linear_889_3589" x1="52.2547" y1="10.4402" x2="43.5129" y2="-3.86259" gradientUnits="userSpaceOnUse">
<stop stop-color="#FFDD00"/>
<stop offset="0.0001" stop-color="#FFE350"/>
<stop offset="1" stop-color="#FFCD0F"/>
</linearGradient>
<linearGradient id="paint12_linear_889_3589" x1="24.3625" y1="32.3265" x2="27.0281" y2="38.2555" gradientUnits="userSpaceOnUse">
<stop stop-color="#FFA43D"/>
<stop offset="1" stop-color="#FA9E00"/>
</linearGradient>
<linearGradient id="paint13_linear_889_3589" x1="36.256" y1="34.5783" x2="29.2898" y2="23.1808" gradientUnits="userSpaceOnUse">
<stop stop-color="#FFDD00"/>
<stop offset="0.0001" stop-color="#FFE350"/>
<stop offset="1" stop-color="#FFCD0F"/>
</linearGradient>
<linearGradient id="paint14_linear_889_3589" x1="24.3625" y1="25.8646" x2="27.0281" y2="31.7936" gradientUnits="userSpaceOnUse">
<stop stop-color="#FFA43D"/>
<stop offset="1" stop-color="#FA9E00"/>
</linearGradient>
<linearGradient id="paint15_linear_889_3589" x1="36.256" y1="28.1164" x2="29.2898" y2="16.7189" gradientUnits="userSpaceOnUse">
<stop stop-color="#FFDD00"/>
<stop offset="0.0001" stop-color="#FFE350"/>
<stop offset="1" stop-color="#FFCD0F"/>
</linearGradient>
<linearGradient id="paint16_linear_889_3589" x1="24.3625" y1="19.4027" x2="27.0281" y2="25.3316" gradientUnits="userSpaceOnUse">
<stop stop-color="#FFA43D"/>
<stop offset="1" stop-color="#FA9E00"/>
</linearGradient>
<linearGradient id="paint17_linear_889_3589" x1="36.256" y1="21.6535" x2="29.2898" y2="10.256" gradientUnits="userSpaceOnUse">
<stop stop-color="#FFDD00"/>
<stop offset="0.0001" stop-color="#FFE350"/>
<stop offset="1" stop-color="#FFCD0F"/>
</linearGradient>
</defs>
</svg>
