<svg width="12" height="12" viewBox="0 0 12 12" fill="none" xmlns="http://www.w3.org/2000/svg">
<path d="M0.927734 9.61742C0.927734 8.974 1.18333 8.35694 1.6383 7.90197C2.09326 7.447 2.71033 7.19141 3.35375 7.19141H8.20578C8.8492 7.19141 9.46626 7.447 9.92123 7.90197C10.3762 8.35694 10.6318 8.974 10.6318 9.61742C10.6318 9.93913 10.504 10.2477 10.2765 10.4751C10.049 10.7026 9.74049 10.8304 9.41878 10.8304H2.14074C1.81903 10.8304 1.5105 10.7026 1.28302 10.4751C1.05553 10.2477 0.927734 9.93913 0.927734 9.61742Z" stroke="#484848" stroke-width="0.909755" stroke-linejoin="round"/>
<path d="M5.78045 4.765C6.78534 4.765 7.59996 3.95037 7.59996 2.94549C7.59996 1.9406 6.78534 1.12598 5.78045 1.12598C4.77556 1.12598 3.96094 1.9406 3.96094 2.94549C3.96094 3.95037 4.77556 4.765 5.78045 4.765Z" stroke="#484848" stroke-width="0.909755"/>
</svg>
