<svg width="13" height="14" viewBox="0 0 13 14" fill="none" xmlns="http://www.w3.org/2000/svg">
<path d="M11.1484 2.12609H9.93544V1.51959C9.93544 1.35873 9.87154 1.20447 9.7578 1.09073C9.64406 0.976985 9.48979 0.913086 9.32894 0.913086C9.16809 0.913086 9.01382 0.976985 8.90008 1.09073C8.78634 1.20447 8.72244 1.35873 8.72244 1.51959V2.12609H5.08342V1.51959C5.08342 1.35873 5.01952 1.20447 4.90577 1.09073C4.79203 0.976985 4.63777 0.913086 4.47691 0.913086C4.31606 0.913086 4.16179 0.976985 4.04805 1.09073C3.93431 1.20447 3.87041 1.35873 3.87041 1.51959V2.12609H2.6574C2.17484 2.12609 1.71204 2.31779 1.37081 2.65902C1.02959 3.00024 0.837891 3.46304 0.837891 3.9456V11.2236C0.837891 11.7062 1.02959 12.169 1.37081 12.5102C1.71204 12.8515 2.17484 13.0432 2.6574 13.0432H11.1484C11.631 13.0432 12.0938 12.8515 12.435 12.5102C12.7763 12.169 12.968 11.7062 12.968 11.2236V3.9456C12.968 3.46304 12.7763 3.00024 12.435 2.65902C12.0938 2.31779 11.631 2.12609 11.1484 2.12609ZM11.755 11.2236C11.755 11.3845 11.6911 11.5388 11.5773 11.6525C11.4636 11.7662 11.3093 11.8301 11.1484 11.8301H2.6574C2.49655 11.8301 2.34228 11.7662 2.22854 11.6525C2.1148 11.5388 2.0509 11.3845 2.0509 11.2236V6.97812H11.755V11.2236ZM11.755 5.76511H2.0509V3.9456C2.0509 3.78475 2.1148 3.63048 2.22854 3.51674C2.34228 3.403 2.49655 3.3391 2.6574 3.3391H3.87041V3.9456C3.87041 4.10646 3.93431 4.26072 4.04805 4.37447C4.16179 4.48821 4.31606 4.55211 4.47691 4.55211C4.63777 4.55211 4.79203 4.48821 4.90577 4.37447C5.01952 4.26072 5.08342 4.10646 5.08342 3.9456V3.3391H8.72244V3.9456C8.72244 4.10646 8.78634 4.26072 8.90008 4.37447C9.01382 4.48821 9.16809 4.55211 9.32894 4.55211C9.48979 4.55211 9.64406 4.48821 9.7578 4.37447C9.87154 4.26072 9.93544 4.10646 9.93544 3.9456V3.3391H11.1484C11.3093 3.3391 11.4636 3.403 11.5773 3.51674C11.6911 3.63048 11.755 3.78475 11.755 3.9456V5.76511Z" fill="#484848"/>
</svg>
