<svg width="14" height="15" viewBox="0 0 14 15" fill="none" xmlns="http://www.w3.org/2000/svg">
<g clip-path="url(#clip0_332_6740)">
<path d="M5.71 4.81014C3.79 3.50014 2 4.50014 0.5 6.04014L3.82 8.04014M9.69 8.79014C11 10.7101 10 12.5001 8.46 14.0001L6.46 10.6801" stroke="white" stroke-linecap="round" stroke-linejoin="round"/>
<path d="M5.28031 5.51985L8.98031 9.21985M3.82031 8.02985L6.47031 10.6799C8.59031 9.40985 11.0003 8.17985 12.1003 7.03985C14.4803 4.65985 13.1003 1.39985 13.1003 1.39985C13.1003 1.39985 9.84031 0.0198504 7.46031 2.39985C6.32031 3.49985 5.08031 5.91985 3.82031 8.02985Z" stroke="white" stroke-linecap="round" stroke-linejoin="round"/>
<path d="M10.5 4.5C10.6326 4.5 10.7598 4.44732 10.8536 4.35355C10.9473 4.25979 11 4.13261 11 4C11 3.86739 10.9473 3.74021 10.8536 3.64645C10.7598 3.55268 10.6326 3.5 10.5 3.5C10.3674 3.5 10.2402 3.55268 10.1464 3.64645C10.0527 3.74021 10 3.86739 10 4C10 4.13261 10.0527 4.25979 10.1464 4.35355C10.2402 4.44732 10.3674 4.5 10.5 4.5ZM3.68 12.94C3.1 13.5 0.5 14 0.5 14C0.5 14 1 11.4 1.56 10.82C1.76709 10.5986 2.03636 10.4451 2.33238 10.3797C2.62839 10.3143 2.93727 10.3401 3.21835 10.4536C3.49944 10.5672 3.73956 10.7631 3.90711 11.0158C4.07465 11.2684 4.16177 11.5659 4.157 11.869C4.15334 12.0702 4.10923 12.2687 4.02728 12.4525C3.94533 12.6363 3.82723 12.8028 3.68 12.94Z" stroke="white" stroke-linecap="round" stroke-linejoin="round"/>
</g>
<defs>
<clipPath id="clip0_332_6740">
<rect width="14" height="14" fill="white" transform="translate(0 0.5)"/>
</clipPath>
</defs>
</svg>
