<svg width="12" height="12" viewBox="0 0 12 12" fill="none" xmlns="http://www.w3.org/2000/svg">
<path fill-rule="evenodd" clip-rule="evenodd" d="M5.83333 11.6667C2.61158 11.6667 0 9.05508 0 5.83333C0 2.61158 2.61158 0 5.83333 0C9.05508 0 11.6667 2.61158 11.6667 5.83333C11.6667 9.05508 9.05508 11.6667 5.83333 11.6667ZM5.83333 10.9667C7.19478 10.9667 8.50046 10.4258 9.46315 9.46315C10.4258 8.50046 10.9667 7.19478 10.9667 5.83333C10.9667 4.47189 10.4258 3.16621 9.46315 2.20352C8.50046 1.24083 7.19478 0.7 5.83333 0.7C4.47189 0.7 3.16621 1.24083 2.20352 2.20352C1.24083 3.16621 0.7 4.47189 0.7 5.83333C0.7 7.19478 1.24083 8.50046 2.20352 9.46315C3.16621 10.4258 4.47189 10.9667 5.83333 10.9667ZM5.14967 7.3255L8.53825 3.9375L9.03292 4.43275L5.56208 7.90358C5.45269 8.01294 5.30435 8.07438 5.14967 8.07438C4.99499 8.07438 4.84664 8.01294 4.73725 7.90358L2.91667 6.08183L3.41192 5.58658L5.15025 7.32492L5.14967 7.3255Z" fill="#003289"/>
</svg>
