<svg width="27" height="35" viewBox="0 0 27 35" fill="none" xmlns="http://www.w3.org/2000/svg">
<path d="M9.16667 19.6875C9.16667 20.2677 8.93839 20.8241 8.53206 21.2343C8.12574 21.6445 7.57464 21.875 7 21.875C6.42536 21.875 5.87426 21.6445 5.46794 21.2343C5.06161 20.8241 4.83333 20.2677 4.83333 19.6875C4.83333 19.1073 5.06161 18.5509 5.46794 18.1407C5.87426 17.7305 6.42536 17.5 7 17.5C7.57464 17.5 8.12574 17.7305 8.53206 18.1407C8.93839 18.5509 9.16667 19.1073 9.16667 19.6875ZM9.16667 26.25C9.16667 26.8302 8.93839 27.3866 8.53206 27.7968C8.12574 28.207 7.57464 28.4375 7 28.4375C6.42536 28.4375 5.87426 28.207 5.46794 27.7968C5.06161 27.3866 4.83333 26.8302 4.83333 26.25C4.83333 25.6698 5.06161 25.1134 5.46794 24.7032C5.87426 24.293 6.42536 24.0625 7 24.0625C7.57464 24.0625 8.12574 24.293 8.53206 24.7032C8.93839 25.1134 9.16667 25.6698 9.16667 26.25ZM20 21.875C20.5746 21.875 21.1257 21.6445 21.5321 21.2343C21.9384 20.8241 22.1667 20.2677 22.1667 19.6875C22.1667 19.1073 21.9384 18.5509 21.5321 18.1407C21.1257 17.7305 20.5746 17.5 20 17.5C19.4254 17.5 18.8743 17.7305 18.4679 18.1407C18.0616 18.5509 17.8333 19.1073 17.8333 19.6875C17.8333 20.2677 18.0616 20.8241 18.4679 21.2343C18.8743 21.6445 19.4254 21.875 20 21.875ZM22.1667 26.25C22.1667 26.8302 21.9384 27.3866 21.5321 27.7968C21.1257 28.207 20.5746 28.4375 20 28.4375C19.4254 28.4375 18.8743 28.207 18.4679 27.7968C18.0616 27.3866 17.8333 26.8302 17.8333 26.25C17.8333 25.6698 18.0616 25.1134 18.4679 24.7032C18.8743 24.293 19.4254 24.0625 20 24.0625C20.5746 24.0625 21.1257 24.293 21.5321 24.7032C21.9384 25.1134 22.1667 25.6698 22.1667 26.25ZM13.5 21.875C14.0746 21.875 14.6257 21.6445 15.0321 21.2343C15.4384 20.8241 15.6667 20.2677 15.6667 19.6875C15.6667 19.1073 15.4384 18.5509 15.0321 18.1407C14.6257 17.7305 14.0746 17.5 13.5 17.5C12.9254 17.5 12.3743 17.7305 11.9679 18.1407C11.5616 18.5509 11.3333 19.1073 11.3333 19.6875C11.3333 20.2677 11.5616 20.8241 11.9679 21.2343C12.3743 21.6445 12.9254 21.875 13.5 21.875ZM15.6667 26.25C15.6667 26.8302 15.4384 27.3866 15.0321 27.7968C14.6257 28.207 14.0746 28.4375 13.5 28.4375C12.9254 28.4375 12.3743 28.207 11.9679 27.7968C11.5616 27.3866 11.3333 26.8302 11.3333 26.25C11.3333 25.6698 11.5616 25.1134 11.9679 24.7032C12.3743 24.293 12.9254 24.0625 13.5 24.0625C14.0746 24.0625 14.6257 24.293 15.0321 24.7032C15.4384 25.1134 15.6667 25.6698 15.6667 26.25ZM8.08333 4.375C7.22138 4.375 6.39473 4.7207 5.78524 5.33606C5.17574 5.95141 4.83333 6.78601 4.83333 7.65625V9.84375C4.83333 10.714 5.17574 11.5486 5.78524 12.1639C6.39473 12.7793 7.22138 13.125 8.08333 13.125H18.9167C19.7786 13.125 20.6053 12.7793 21.2148 12.1639C21.8243 11.5486 22.1667 10.714 22.1667 9.84375V7.65625C22.1667 6.78601 21.8243 5.95141 21.2148 5.33606C20.6053 4.7207 19.7786 4.375 18.9167 4.375H8.08333ZM7 7.65625C7 7.36617 7.11414 7.08797 7.3173 6.88285C7.52047 6.67773 7.79602 6.5625 8.08333 6.5625H18.9167C19.204 6.5625 19.4795 6.67773 19.6827 6.88285C19.8859 7.08797 20 7.36617 20 7.65625V9.84375C20 10.1338 19.8859 10.412 19.6827 10.6171C19.4795 10.8223 19.204 10.9375 18.9167 10.9375H8.08333C7.79602 10.9375 7.52047 10.8223 7.3173 10.6171C7.11414 10.412 7 10.1338 7 9.84375V7.65625ZM26.5 29.5312C26.5 30.9817 25.9293 32.3727 24.9135 33.3982C23.8977 34.4238 22.5199 35 21.0833 35H5.91667C4.48008 35 3.10233 34.4238 2.0865 33.3982C1.07068 32.3727 0.5 30.9817 0.5 29.5312V5.46875C0.5 4.01835 1.07068 2.62735 2.0865 1.60176C3.10233 0.57617 4.48008 0 5.91667 0H21.0833C22.5199 0 23.8977 0.57617 24.9135 1.60176C25.9293 2.62735 26.5 4.01835 26.5 5.46875V29.5312ZM24.3333 5.46875C24.3333 4.59851 23.9909 3.76391 23.3814 3.14856C22.7719 2.5332 21.9453 2.1875 21.0833 2.1875H5.91667C5.05471 2.1875 4.22806 2.5332 3.61857 3.14856C3.00908 3.76391 2.66667 4.59851 2.66667 5.46875V29.5312C2.66667 30.4015 3.00908 31.2361 3.61857 31.8514C4.22806 32.4668 5.05471 32.8125 5.91667 32.8125H21.0833C21.9453 32.8125 22.7719 32.4668 23.3814 31.8514C23.9909 31.2361 24.3333 30.4015 24.3333 29.5312V5.46875Z" fill="white"/>
</svg>
