<svg width="17" height="16" viewBox="0 0 17 16" fill="none" xmlns="http://www.w3.org/2000/svg">
<path fill-rule="evenodd" clip-rule="evenodd" d="M16.3085 0.664875C16.2647 0.5596 16.2008 0.463889 16.1204 0.383125L16.1169 0.379625C15.953 0.216589 15.7312 0.125048 15.5 0.125H10.25C10.0179 0.125 9.79538 0.217187 9.63128 0.381282C9.46719 0.545376 9.375 0.767936 9.375 1C9.375 1.23206 9.46719 1.45462 9.63128 1.61872C9.79538 1.78281 10.0179 1.875 10.25 1.875H13.3878L7.00638 8.25638C6.9228 8.33709 6.85614 8.43364 6.81029 8.5404C6.76443 8.64715 6.74029 8.76197 6.73928 8.87815C6.73827 8.99433 6.76041 9.10955 6.80441 9.21708C6.8484 9.32462 6.91337 9.42231 6.99553 9.50447C7.07769 9.58663 7.17538 9.6516 7.28292 9.69559C7.39045 9.73959 7.50567 9.76173 7.62185 9.76072C7.73803 9.75971 7.85285 9.73557 7.9596 9.68971C8.06636 9.64386 8.16291 9.5772 8.24362 9.49362L14.625 3.11225V6.25C14.625 6.48206 14.7172 6.70462 14.8813 6.86872C15.0454 7.03281 15.2679 7.125 15.5 7.125C15.7321 7.125 15.9546 7.03281 16.1187 6.86872C16.2828 6.70462 16.375 6.48206 16.375 6.25V0.997375C16.375 0.883042 16.3528 0.772208 16.3085 0.664875ZM0.625 4.5C0.625 3.33968 1.08594 2.22688 1.90641 1.40641C2.72688 0.585936 3.83968 0.125 5 0.125H5.875C6.10706 0.125 6.32962 0.217187 6.49372 0.381282C6.65781 0.545376 6.75 0.767936 6.75 1C6.75 1.23206 6.65781 1.45462 6.49372 1.61872C6.32962 1.78281 6.10706 1.875 5.875 1.875H5C4.30381 1.875 3.63613 2.15156 3.14384 2.64384C2.65156 3.13613 2.375 3.80381 2.375 4.5V11.5C2.375 12.1962 2.65156 12.8639 3.14384 13.3562C3.63613 13.8484 4.30381 14.125 5 14.125H12C12.6962 14.125 13.3639 13.8484 13.8562 13.3562C14.3484 12.8639 14.625 12.1962 14.625 11.5V10.625C14.625 10.3929 14.7172 10.1704 14.8813 10.0063C15.0454 9.84219 15.2679 9.75 15.5 9.75C15.7321 9.75 15.9546 9.84219 16.1187 10.0063C16.2828 10.1704 16.375 10.3929 16.375 10.625V11.5C16.375 12.6603 15.9141 13.7731 15.0936 14.5936C14.2731 15.4141 13.1603 15.875 12 15.875H5C3.83968 15.875 2.72688 15.4141 1.90641 14.5936C1.08594 13.7731 0.625 12.6603 0.625 11.5V4.5Z" fill="black"/>
</svg>
