<svg width="45" height="13" viewBox="0 0 45 13" fill="none" xmlns="http://www.w3.org/2000/svg">
<path d="M0.595703 0.580078H44.0797L38.2819 6.18952L44.0797 11.0162H0.595703V0.580078Z" fill="#003289"/>
<path d="M4.68031 8.41992V4.4307H3.21983V3.80887H6.76262V4.4307H5.3691V8.41992H4.68031ZM7.18539 8.41992V5.12267H7.8391V5.7987C7.89437 5.63714 7.9709 5.50214 8.0687 5.39372C8.16861 5.28318 8.28447 5.20027 8.41628 5.14499C8.54808 5.08759 8.68733 5.0589 8.83401 5.0589C8.87866 5.0589 8.92118 5.06208 8.96157 5.06846C9.00196 5.07271 9.03385 5.08122 9.05723 5.09397V5.75087C9.0296 5.73812 8.99346 5.72961 8.94881 5.72536C8.90629 5.72111 8.86909 5.71792 8.8372 5.71579C8.69264 5.70516 8.56084 5.71261 8.44179 5.73812C8.32274 5.76363 8.21963 5.80614 8.13247 5.86567C8.04744 5.92519 7.98153 6.00279 7.93476 6.09845C7.89012 6.19412 7.8678 6.30679 7.8678 6.43647V8.41992H7.18539ZM11.1053 8.4837C10.7928 8.4837 10.5175 8.41673 10.2794 8.2828C10.0413 8.14675 9.85524 7.95329 9.72131 7.70244C9.5895 7.45158 9.5236 7.15289 9.5236 6.80637C9.5236 6.46411 9.58419 6.16223 9.70536 5.90075C9.82654 5.63714 10.0019 5.43093 10.2315 5.28211C10.4611 5.1333 10.7375 5.0589 11.0606 5.0589C11.3774 5.0589 11.6452 5.12692 11.8642 5.26298C12.0832 5.39904 12.249 5.59037 12.3617 5.83697C12.4743 6.08145 12.5307 6.37057 12.5307 6.70433V6.93074H10.2092C10.2071 7.12845 10.239 7.30596 10.3049 7.46327C10.3708 7.61846 10.4686 7.74176 10.5982 7.83318C10.73 7.92246 10.8937 7.96711 11.0893 7.96711C11.287 7.96711 11.4571 7.92246 11.5995 7.83318C11.7441 7.74389 11.8387 7.61102 11.8833 7.43457H12.5147C12.4765 7.65992 12.3861 7.85125 12.2437 8.00856C12.1012 8.16588 11.9301 8.28493 11.7303 8.36571C11.5304 8.44437 11.3221 8.4837 11.1053 8.4837ZM10.2092 6.48749H11.8801C11.8801 6.31529 11.8504 6.15904 11.7909 6.01873C11.7313 5.8763 11.6399 5.76469 11.5166 5.68391C11.3954 5.601 11.2424 5.55954 11.0574 5.55954C10.8682 5.55954 10.7109 5.60525 10.5855 5.69666C10.4601 5.78807 10.3655 5.905 10.3017 6.04743C10.24 6.18987 10.2092 6.33655 10.2092 6.48749ZM13.3077 8.41992V5.12267H13.9742V5.59781C14.0273 5.50852 14.0985 5.42455 14.1878 5.34589C14.2792 5.26723 14.3908 5.20346 14.5226 5.15456C14.6566 5.10566 14.8107 5.08122 14.985 5.08122C15.1912 5.08122 15.3815 5.12267 15.5558 5.20558C15.7323 5.28636 15.8736 5.41392 15.9799 5.58824C16.0862 5.76044 16.1394 5.98366 16.1394 6.2579V8.41992H15.457V6.33124C15.457 6.09526 15.3932 5.91988 15.2656 5.80508C15.1402 5.69028 14.9776 5.63288 14.7777 5.63288C14.6438 5.63288 14.5163 5.65521 14.3951 5.69985C14.2739 5.74449 14.1761 5.81252 14.1017 5.90393C14.0273 5.99322 13.9901 6.10589 13.9901 6.24195V8.41992H13.3077ZM18.2284 8.4837C17.7969 8.4837 17.4556 8.33595 17.2048 8.04045C16.9561 7.74283 16.8317 7.31446 16.8317 6.75535C16.8317 6.41308 16.8817 6.11546 16.9816 5.86248C17.0836 5.60737 17.2335 5.40967 17.4312 5.26936C17.6289 5.12905 17.8755 5.0589 18.171 5.0589C18.3177 5.0589 18.4495 5.07697 18.5664 5.11311C18.6833 5.14925 18.7854 5.19601 18.8726 5.25341C18.9597 5.31081 19.0331 5.37246 19.0926 5.43837C19.1521 5.50427 19.1967 5.56592 19.2265 5.62332V3.68132H19.9153V8.41992H19.4019L19.3254 7.74389C19.302 7.81617 19.2658 7.89483 19.2169 7.97986C19.1702 8.0649 19.1043 8.14568 19.0192 8.22221C18.9363 8.29875 18.83 8.36146 18.7004 8.41036C18.5707 8.45925 18.4134 8.4837 18.2284 8.4837ZM18.3591 7.9703C18.6653 7.9703 18.8864 7.87463 19.0224 7.6833C19.1585 7.48985 19.2265 7.17309 19.2265 6.73303C19.2244 6.4843 19.1936 6.27384 19.134 6.10164C19.0766 5.92945 18.9852 5.79977 18.8598 5.71261C18.7365 5.62332 18.5739 5.57867 18.3719 5.57867C18.1189 5.57867 17.9117 5.67009 17.7501 5.85291C17.5906 6.03361 17.5109 6.32699 17.5109 6.73303C17.5109 7.1327 17.5832 7.43883 17.7278 7.65141C17.8744 7.864 18.0849 7.9703 18.3591 7.9703ZM20.8909 8.41992V5.12267H21.5478V8.41992H20.8909ZM20.8749 4.48491V3.81206H21.5605V4.48491H20.8749ZM22.5254 8.41992V5.12267H23.1919V5.59781C23.245 5.50852 23.3162 5.42455 23.4055 5.34589C23.4969 5.26723 23.6085 5.20346 23.7404 5.15456C23.8743 5.10566 24.0284 5.08122 24.2027 5.08122C24.4089 5.08122 24.5992 5.12267 24.7735 5.20558C24.95 5.28636 25.0914 5.41392 25.1976 5.58824C25.3039 5.76044 25.3571 5.98366 25.3571 6.2579V8.41992H24.6747V6.33124C24.6747 6.09526 24.6109 5.91988 24.4833 5.80508C24.3579 5.69028 24.1953 5.63288 23.9955 5.63288C23.8615 5.63288 23.734 5.65521 23.6128 5.69985C23.4916 5.74449 23.3938 5.81252 23.3194 5.90393C23.245 5.99322 23.2078 6.10589 23.2078 6.24195V8.41992H22.5254ZM27.663 9.5105C27.1272 9.5105 26.7127 9.43503 26.4193 9.28409C26.1259 9.13528 25.9793 8.92695 25.9793 8.65908C25.9793 8.54216 26.0069 8.44331 26.0622 8.36252C26.1196 8.27961 26.1865 8.21158 26.2631 8.15844C26.3417 8.10529 26.414 8.06384 26.4799 8.03407C26.5458 8.00219 26.5883 7.97986 26.6075 7.96711C26.5713 7.94585 26.5245 7.91928 26.4671 7.88739C26.4119 7.85337 26.3619 7.80873 26.3173 7.75346C26.2726 7.69606 26.2503 7.62165 26.2503 7.53024C26.2503 7.42394 26.3003 7.32615 26.4002 7.23687C26.5022 7.14545 26.6553 7.07849 26.8594 7.03597C26.6595 6.93818 26.5044 6.80637 26.3938 6.64055C26.2833 6.47474 26.228 6.29829 26.228 6.11121C26.228 5.89649 26.2886 5.71154 26.4097 5.55635C26.5309 5.39904 26.701 5.27892 26.92 5.19601C27.1411 5.11311 27.4004 5.07165 27.698 5.07165C27.917 5.07165 28.0988 5.0961 28.2433 5.14499C28.39 5.19389 28.525 5.26192 28.6483 5.34908C28.6887 5.3342 28.7461 5.31188 28.8205 5.28211C28.897 5.25022 28.9799 5.21621 29.0692 5.18007C29.1585 5.14393 29.2436 5.10885 29.3243 5.07484C29.4073 5.04082 29.4742 5.01319 29.5252 4.99193L29.522 5.58505L28.9481 5.69028C28.9778 5.75406 29.0012 5.82421 29.0182 5.90075C29.0373 5.97728 29.0469 6.04743 29.0469 6.11121C29.0469 6.30254 28.9948 6.47899 28.8907 6.64055C28.7865 6.8 28.6302 6.92755 28.4219 7.02321C28.2136 7.11888 27.9531 7.16671 27.6406 7.16671C27.6109 7.16671 27.5726 7.16671 27.5258 7.16671C27.4791 7.16459 27.4397 7.1614 27.4079 7.15715C27.2101 7.16352 27.0741 7.18691 26.9997 7.2273C26.9253 7.26557 26.8881 7.30808 26.8881 7.35485C26.8881 7.41438 26.9359 7.45477 27.0316 7.47603C27.1272 7.49729 27.2846 7.51536 27.5035 7.53024C27.5822 7.53662 27.6821 7.54299 27.8033 7.54937C27.9266 7.55575 28.0626 7.56425 28.2114 7.57488C28.5728 7.59614 28.8481 7.68649 29.0373 7.84593C29.2287 8.00537 29.3243 8.2169 29.3243 8.48051C29.3243 8.78239 29.1872 9.02899 28.913 9.22032C28.6387 9.41377 28.2221 9.5105 27.663 9.5105ZM27.7809 9.09277C28.0722 9.09277 28.2922 9.05025 28.441 8.96521C28.5898 8.8823 28.6643 8.75794 28.6643 8.59212C28.6643 8.46882 28.6164 8.36784 28.5208 8.28918C28.4251 8.21052 28.2816 8.16482 28.0903 8.15206L27.2101 8.09466C27.123 8.09041 27.0358 8.10954 26.9487 8.15206C26.8636 8.19458 26.7935 8.2541 26.7382 8.33063C26.6829 8.40504 26.6553 8.48795 26.6553 8.57936C26.6553 8.74518 26.7467 8.87167 26.9295 8.95883C27.1124 9.04812 27.3962 9.09277 27.7809 9.09277ZM27.6598 6.74897C27.8809 6.74897 28.0584 6.69583 28.1923 6.58953C28.3284 6.48111 28.3964 6.32592 28.3964 6.12396C28.3964 5.91563 28.3284 5.75512 28.1923 5.64245C28.0584 5.52765 27.8809 5.47025 27.6598 5.47025C27.4366 5.47025 27.2559 5.52765 27.1177 5.64245C26.9816 5.75725 26.9136 5.91775 26.9136 6.12396C26.9136 6.31955 26.9784 6.47261 27.1081 6.58316C27.2399 6.6937 27.4238 6.74897 27.6598 6.74897Z" fill="white"/>
</svg>
