<svg width="21" height="22" viewBox="0 0 21 22" fill="none" xmlns="http://www.w3.org/2000/svg">
<path fill-rule="evenodd" clip-rule="evenodd" d="M18.3085 3.66488C18.2647 3.5596 18.2008 3.46389 18.1204 3.38313L18.1169 3.37962C17.953 3.21659 17.7312 3.12505 17.5 3.125H12.25C12.0179 3.125 11.7954 3.21719 11.6313 3.38128C11.4672 3.54538 11.375 3.76794 11.375 4C11.375 4.23206 11.4672 4.45462 11.6313 4.61872C11.7954 4.78281 12.0179 4.875 12.25 4.875H15.3878L9.00638 11.2564C8.9228 11.3371 8.85614 11.4336 8.81029 11.5404C8.76443 11.6472 8.74029 11.762 8.73928 11.8781C8.73827 11.9943 8.76041 12.1096 8.80441 12.2171C8.8484 12.3246 8.91337 12.4223 8.99553 12.5045C9.07769 12.5866 9.17538 12.6516 9.28292 12.6956C9.39045 12.7396 9.50567 12.7617 9.62185 12.7607C9.73803 12.7597 9.85285 12.7356 9.9596 12.6897C10.0664 12.6439 10.1629 12.5772 10.2436 12.4936L16.625 6.11225V9.25C16.625 9.48206 16.7172 9.70462 16.8813 9.86872C17.0454 10.0328 17.2679 10.125 17.5 10.125C17.7321 10.125 17.9546 10.0328 18.1187 9.86872C18.2828 9.70462 18.375 9.48206 18.375 9.25V3.99738C18.375 3.88304 18.3528 3.77221 18.3085 3.66488ZM2.625 7.5C2.625 6.33968 3.08594 5.22688 3.90641 4.40641C4.72688 3.58594 5.83968 3.125 7 3.125H7.875C8.10706 3.125 8.32962 3.21719 8.49372 3.38128C8.65781 3.54538 8.75 3.76794 8.75 4C8.75 4.23206 8.65781 4.45462 8.49372 4.61872C8.32962 4.78281 8.10706 4.875 7.875 4.875H7C6.30381 4.875 5.63613 5.15156 5.14384 5.64384C4.65156 6.13613 4.375 6.80381 4.375 7.5V14.5C4.375 15.1962 4.65156 15.8639 5.14384 16.3562C5.63613 16.8484 6.30381 17.125 7 17.125H14C14.6962 17.125 15.3639 16.8484 15.8562 16.3562C16.3484 15.8639 16.625 15.1962 16.625 14.5V13.625C16.625 13.3929 16.7172 13.1704 16.8813 13.0063C17.0454 12.8422 17.2679 12.75 17.5 12.75C17.7321 12.75 17.9546 12.8422 18.1187 13.0063C18.2828 13.1704 18.375 13.3929 18.375 13.625V14.5C18.375 15.6603 17.9141 16.7731 17.0936 17.5936C16.2731 18.4141 15.1603 18.875 14 18.875H7C5.83968 18.875 4.72688 18.4141 3.90641 17.5936C3.08594 16.7731 2.625 15.6603 2.625 14.5V7.5Z" fill="black"/>
</svg>
