<svg width="46" height="46" viewBox="0 0 46 46" fill="none" xmlns="http://www.w3.org/2000/svg">
<rect width="46" height="46" rx="23" fill="#B5B5B5"/>
<path d="M13 22.1017H16.7543C16.9124 22.0999 17.0671 22.056 17.2027 21.9747C17.3382 21.8934 17.4497 21.7774 17.5257 21.6388L20.6114 15.4674C20.6875 15.3137 20.8087 15.187 20.9589 15.1043C21.109 15.0216 21.2809 14.9867 21.4514 15.0045C21.6213 15.016 21.7834 15.0799 21.9154 15.1873C22.0474 15.2948 22.1429 15.4406 22.1886 15.6045L26.0114 28.3245C26.0616 28.4971 26.1647 28.6495 26.3062 28.7602C26.4477 28.871 26.6205 28.9344 26.8 28.9417C26.9682 28.9361 27.1311 28.8811 27.2683 28.7835C27.4055 28.686 27.5109 28.5502 27.5714 28.3931L29.92 22.6502C29.9847 22.4892 30.0958 22.351 30.2393 22.2533C30.3828 22.1556 30.5521 22.1028 30.7257 22.1017H35.2857" stroke="black" stroke-width="2" stroke-linecap="round" stroke-linejoin="round"/>
</svg>
