<svg width="16" height="13" viewBox="0 0 16 13" fill="none" xmlns="http://www.w3.org/2000/svg">
<path d="M1.67848 12.1813C1.25329 12.1813 0.889424 12.0402 0.586893 11.7578C0.284363 11.4754 0.13284 11.1356 0.132324 10.7383V2.0798C0.132324 1.68295 0.283847 1.34335 0.586893 1.06098C0.88994 0.778621 1.2538 0.6372 1.67848 0.636719H14.0477C14.4729 0.636719 14.837 0.77814 15.1401 1.06098C15.4431 1.34383 15.5944 1.68343 15.5939 2.0798V10.7383C15.5939 11.1351 15.4426 11.4749 15.1401 11.7578C14.8375 12.0406 14.4734 12.1818 14.0477 12.1813H1.67848ZM7.86309 7.13056L14.0477 3.52287V2.0798L7.86309 5.68749L1.67848 2.0798V3.52287L7.86309 7.13056Z" fill="#003289"/>
</svg>
