<svg width="11" height="15" viewBox="0 0 11 15" fill="none" xmlns="http://www.w3.org/2000/svg">
<path d="M5.65697 7.29114C5.17856 7.29114 4.71975 7.10109 4.38146 6.7628C4.04317 6.42452 3.85312 5.9657 3.85312 5.48729C3.85312 5.00888 4.04317 4.55007 4.38146 4.21178C4.71975 3.87349 5.17856 3.68345 5.65697 3.68345C6.13538 3.68345 6.5942 3.87349 6.93248 4.21178C7.27077 4.55007 7.46082 5.00888 7.46082 5.48729C7.46082 5.72418 7.41416 5.95874 7.32351 6.1776C7.23286 6.39645 7.09999 6.5953 6.93248 6.7628C6.76498 6.93031 6.56613 7.06318 6.34727 7.15383C6.12842 7.24448 5.89386 7.29114 5.65697 7.29114ZM5.65697 0.436523C4.31742 0.436523 3.03274 0.968656 2.08554 1.91586C1.13833 2.86306 0.606201 4.14775 0.606201 5.48729C0.606201 9.27537 5.65697 14.8673 5.65697 14.8673C5.65697 14.8673 10.7077 9.27537 10.7077 5.48729C10.7077 4.14775 10.1756 2.86306 9.2284 1.91586C8.2812 0.968656 6.99652 0.436523 5.65697 0.436523Z" fill="#003289"/>
</svg>
