<svg width="14" height="14" viewBox="0 0 14 14" fill="none" xmlns="http://www.w3.org/2000/svg">
<path d="M13.0526 13.9418C11.5494 13.9418 10.0642 13.6142 8.59709 12.9591C7.12996 12.3039 5.79511 11.3748 4.59255 10.1718C3.38998 8.96871 2.46112 7.63386 1.80597 6.16722C1.15081 4.70057 0.822991 3.2154 0.82251 1.71172C0.82251 1.49526 0.894664 1.31487 1.03897 1.17056C1.18328 1.02626 1.36366 0.954102 1.58013 0.954102H4.50236C4.67071 0.954102 4.82104 1.01134 4.95332 1.12583C5.0856 1.24031 5.16377 1.37548 5.18782 1.53133L5.65682 4.05672C5.68087 4.24913 5.67486 4.41147 5.63878 4.54376C5.6027 4.67604 5.53656 4.79028 5.44036 4.88649L3.69062 6.65425C3.93114 7.0992 4.21663 7.529 4.54709 7.94364C4.87756 8.35829 5.24145 8.75826 5.63878 9.14356C6.01157 9.51636 6.40241 9.86222 6.81128 10.1811C7.22015 10.5001 7.65307 10.7916 8.11005 11.0556L9.80566 9.36002C9.91389 9.25179 10.0553 9.17074 10.2299 9.11687C10.4045 9.06299 10.5758 9.04784 10.7437 9.07141L13.233 9.57649C13.4013 9.62459 13.5396 9.71189 13.6479 9.8384C13.7561 9.96491 13.8102 10.1061 13.8102 10.2619V13.1842C13.8102 13.4006 13.738 13.581 13.5937 13.7253C13.4494 13.8696 13.269 13.9418 13.0526 13.9418Z" fill="#003289"/>
</svg>
