<svg width="17" height="18" viewBox="0 0 17 18" fill="none" xmlns="http://www.w3.org/2000/svg">
<path d="M16.0363 0.617344C15.9177 0.490901 15.7674 0.403708 15.6035 0.366265C15.4395 0.328821 15.2689 0.342722 15.1122 0.406294L0.615944 6.25887H0.613045C0.445902 6.32744 0.302677 6.44938 0.202934 6.60803C0.10319 6.76667 0.0517907 6.9543 0.0557552 7.14527C0.0597197 7.33624 0.118855 7.52125 0.225084 7.67503C0.331314 7.82881 0.479458 7.94387 0.649283 8.00448L0.664141 8.00951L5.63962 10.2758C5.73666 10.3072 5.83973 10.3109 5.93855 10.2866C6.03737 10.2622 6.12846 10.2107 6.20275 10.137L14.1882 2.20022C14.2119 2.17484 14.2402 2.15471 14.2713 2.14097C14.3024 2.12723 14.3357 2.12016 14.3693 2.12016C14.403 2.12016 14.4363 2.12723 14.4674 2.14097C14.4985 2.15471 14.5267 2.17484 14.5505 2.20022C14.5743 2.2256 14.5932 2.25573 14.6061 2.28889C14.619 2.32205 14.6256 2.35759 14.6256 2.39349C14.6256 2.42938 14.619 2.46492 14.6061 2.49808C14.5932 2.53125 14.5743 2.56138 14.5505 2.58676L7.10943 11.1007C7.04039 11.1799 6.99204 11.2771 6.96921 11.3825C6.94638 11.4879 6.94987 11.5978 6.97933 11.7013L9.10469 17.0116C9.10686 17.0193 9.10904 17.0263 9.11158 17.0336C9.22754 17.392 9.52106 17.6448 9.87583 17.6618H9.91207C10.0912 17.6628 10.2664 17.6064 10.4151 17.4999C10.5637 17.3933 10.6789 17.2415 10.7455 17.0642L16.2316 1.60572C16.2921 1.43846 16.3058 1.2561 16.2711 1.08069C16.2365 0.905285 16.1549 0.744348 16.0363 0.617344Z" fill="#003289"/>
</svg>
